<svg width="33" height="37" viewBox="0 0 33 37" fill="none" xmlns="http://www.w3.org/2000/svg">
<g clip-path="url(#clip0_167_189)">
<path fill-rule="evenodd" clip-rule="evenodd" d="M32.3817 30.6112C29.0004 34.5247 24.009 37 18.4412 37C8.2564 37 0 28.7173 0 18.5C0 8.28273 8.2564 0 18.4412 0C24.0089 0 29.0002 2.47523 32.3815 6.38861L27.0708 11.0024C24.9776 8.57996 21.8877 7.0477 18.4412 7.0477C12.1363 7.0477 7.02519 12.1751 7.02519 18.5001C7.02519 24.8251 12.1363 29.9525 18.4412 29.9525C21.8879 29.9525 24.9779 28.4201 27.0711 25.9974L32.3817 30.6112Z" fill="#000E03"/>
<path d="M18.44 24.6673C21.8349 24.6673 24.5871 21.9064 24.5871 18.5006C24.5871 15.0949 21.8349 12.334 18.44 12.334C15.0451 12.334 12.293 15.0949 12.293 18.5006C12.293 21.9064 15.0451 24.6673 18.44 24.6673Z" fill="#EF2B10"/>
</g>
<defs>
<clipPath id="clip0_167_189">
<rect width="33" height="37" fill="white"/>
</clipPath>
</defs>
</svg>
