<svg width="226" height="225" viewBox="0 0 226 225" fill="none" xmlns="http://www.w3.org/2000/svg">
<path d="M77.3151 110.844C102.842 117.979 128.315 125.341 153.949 132.195C174.202 137.616 194.749 142.007 214.896 147.83C218.978 149.008 224.573 154.523 224.734 158.163C225.672 179.581 225.189 200.998 225.189 224.866C200.76 224.866 177.415 225.307 154.11 224.424C150.389 224.29 146.079 218.842 143.402 214.906C121.596 182.78 100.111 150.44 75.508 118.702V224.076H0.238949C0.238949 201.065 -0.25633 178.67 0.69407 156.33C0.868087 152.314 6.38309 147.28 10.6398 145.005C30.8659 134.202 51.5204 124.177 74.4237 112.678C51.5204 101.166 31.1738 90.5378 10.439 80.7393C2.95629 77.2054 -0.216171 72.9754 0.0113889 64.462C0.627141 43.6068 0.225564 22.7782 0.225564 0.959229H74.9725C74.9725 32.2689 74.8387 62.8558 75.0929 93.4425C75.0929 99.3462 76.6726 105.235 77.5292 111.125L77.3151 110.844Z" fill="#9FB1B1"/>
<path d="M77.5651 111.125C100.709 75.7063 123.773 40.1801 147.172 4.9617C148.19 3.63086 149.473 2.52683 150.942 1.72013C152.409 0.913435 154.03 0.421802 155.698 0.276633C178.12 -0.111559 200.541 0.0223006 225.065 0.0223006C225.065 24.1169 225.265 46.873 224.783 69.7228C224.783 72.1724 221.182 76.0811 218.599 76.7102C171.574 88.3694 124.429 99.56 77.3242 110.844L77.5651 111.125Z" fill="#9FB1B1"/>
</svg>
