<svg width="93" height="93" viewBox="0 0 93 93" fill="none" xmlns="http://www.w3.org/2000/svg">
<g clip-path="url(#clip0_91_6787)">
<path d="M93.0006 78.1284C91.9789 79.3999 91.4794 79.5134 89.89 78.9685C78.1515 74.9951 66.413 71.0217 54.6744 67.0029C54.0387 66.7758 53.6527 66.8894 53.1759 67.3435C48.2035 72.2932 43.2084 77.2202 38.236 82.1245C37.9635 82.3969 37.6683 82.6694 37.3278 82.8737C36.2152 83.5322 34.8529 82.8737 34.6486 81.6022C34.6031 81.2844 34.6259 80.9438 34.6259 80.6032C34.6259 74.1777 34.6259 67.7294 34.6259 61.3039C34.6259 60.9633 34.6259 60.6455 34.6259 60.2368C33.8539 59.9643 33.1046 59.6918 32.3553 59.4421C22.2062 56.0136 12.0797 52.5625 1.93055 49.134C1.04505 48.8388 0.29578 48.4074 0.204959 47.3857C0.114139 46.2959 0.840701 45.7736 1.68079 45.3422C31.0612 30.4704 60.4415 15.5532 89.8219 0.635944C91.3885 -0.158734 92.0243 0.000201851 93.0006 1.43062C93.0006 26.9965 93.0006 52.5625 93.0006 78.1284ZM89.3451 8.51461C72.8385 24.8623 56.173 41.3916 39.3939 58.0117C52.858 62.5754 66.1859 67.0937 79.6046 71.6347C79.6046 71.2033 79.6046 70.8627 79.6046 70.5449C79.6046 65.1411 79.6046 59.7373 79.6046 54.3107C79.6046 53.9475 79.6046 53.5842 79.6954 53.2209C79.8771 52.3808 80.649 51.7905 81.4664 51.8132C82.2611 51.8359 82.965 52.3808 83.1466 53.1982C83.2374 53.5388 83.2374 53.9248 83.2374 54.2653C83.2374 60.1914 83.2374 66.1174 83.2601 72.0207C83.2601 72.3159 83.3509 72.8154 83.5099 72.8608C85.4171 73.5647 87.3698 74.2004 89.3678 74.8815C89.3451 52.5852 89.3451 30.3342 89.3451 8.51461ZM6.72132 46.8862C7.15271 47.0678 7.42517 47.1814 7.69763 47.2722C16.6888 50.3147 25.7028 53.3571 34.694 56.445C35.3524 56.6721 35.7157 56.5586 36.1698 56.0817C52.0634 40.0974 68.0023 24.1357 83.8959 8.17403C84.1002 7.96968 84.2819 7.76534 84.4635 7.53829C84.4408 7.51558 84.4181 7.47017 84.3727 7.44747C58.5343 20.571 32.7186 33.6945 6.72132 46.8862ZM38.2814 77.0385C42.1639 73.0197 45.8876 69.1599 49.6112 65.3227C46.0011 64.0966 42.1866 62.8024 38.2814 61.4855C38.2814 66.6623 38.2814 71.7255 38.2814 77.0385Z" fill="white" fill-opacity="0.14"/>
<path d="M47.8627 93.0003C46.2506 91.7969 46.1825 90.8433 47.6129 89.4129C51.6771 85.3487 55.7186 81.3072 59.7828 77.243C60.0553 76.9705 60.3505 76.6981 60.691 76.4937C61.3722 76.085 62.3258 76.2212 62.848 76.8116C63.4156 77.4473 63.5065 78.1739 63.0978 78.9004C62.8934 79.2637 62.5756 79.5589 62.2804 79.8768C58.4205 83.7366 54.5607 87.6192 50.7008 91.4564C50.1559 92.0013 49.5428 92.5008 48.9525 93.0003C48.5892 93.0003 48.226 93.0003 47.8627 93.0003Z" fill="white" fill-opacity="0.14"/>
<path d="M11.0351 84.2586C9.35495 84.2132 8.51486 82.7373 9.19601 81.5567C9.40036 81.2161 9.67282 80.9436 9.94528 80.6485C14.0776 76.5161 18.2099 72.3838 22.365 68.2288C23.5229 67.0708 24.5901 66.8892 25.4301 67.7293C26.2702 68.5466 26.1113 69.6365 24.9533 70.7944C20.7983 74.9495 16.6433 79.1272 12.4428 83.2822C11.966 83.7363 11.353 84.0542 11.0351 84.2586Z" fill="white" fill-opacity="0.14"/>
<path d="M6.24365 85.1445C7.21997 85.1445 8.01465 85.9392 8.03735 86.9155C8.03735 87.8918 7.24268 88.6865 6.26636 88.7092C5.29004 88.7092 4.49536 87.9145 4.47266 86.9382C4.47266 85.9619 5.26733 85.1445 6.24365 85.1445Z" fill="white" fill-opacity="0.14"/>
<path d="M81.3984 48.3845C80.4675 48.3845 79.6047 47.5444 79.582 46.5908C79.582 45.6599 80.4221 44.7971 81.3757 44.7744C82.3066 44.7744 83.1694 45.6145 83.1921 46.5681C83.1921 47.499 82.3521 48.3618 81.3984 48.3845Z" fill="white" fill-opacity="0.14"/>
</g>
<defs>
<clipPath id="clip0_91_6787">
<rect width="93" height="93" fill="white"/>
</clipPath>
</defs>
</svg>
