<svg width="84" height="90" viewBox="0 0 84 90" fill="none" xmlns="http://www.w3.org/2000/svg">
<path d="M38.114 90C37.0094 90 36.114 89.1046 36.114 88V58.8347C36.114 57.2959 34.4488 56.3335 33.1154 57.1018L7.68758 71.7538C6.72923 72.306 5.50463 71.9755 4.95425 71.0161L0.993319 64.1116C0.444417 63.1548 0.773831 61.9342 1.72959 61.3835L27.1435 46.7396C28.4814 45.9686 28.4781 44.0368 27.1377 43.2704L1.73875 28.7485C0.778873 28.1997 0.446447 26.9762 0.996646 26.0171L4.95425 19.1183C5.50464 18.1589 6.72924 17.8284 7.68759 18.3806L33.1154 33.0326C34.4488 33.8009 36.114 32.8385 36.114 31.2997V2C36.114 0.895431 37.0094 0 38.114 0H46.0166C47.1212 0 48.0166 0.895431 48.0166 2V31.2997C48.0166 32.8385 49.6818 33.8009 51.0152 33.0326L76.443 18.3806C77.4014 17.8284 78.626 18.1589 79.1763 19.1184L83.1338 26.0171C83.684 26.9762 83.3516 28.1997 82.3917 28.7485L56.9931 43.2704C55.6526 44.0368 55.6494 45.9686 56.9872 46.7395L82.4009 61.3835C83.3566 61.9343 83.686 63.1548 83.1371 64.1116L79.1763 71.016C78.626 71.9755 77.4014 72.306 76.443 71.7538L51.0152 57.1018C49.6818 56.3335 48.0166 57.2959 48.0166 58.8347V88C48.0166 89.1046 47.1212 90 46.0166 90H38.114Z" fill="white" fill-opacity="0.07"/>
</svg>
