<svg width="44" height="44" viewBox="0 0 44 44" fill="none" xmlns="http://www.w3.org/2000/svg">
<g clip-path="url(#clip0_91_4290)">
<mask id="mask0_91_4290" style="mask-type:alpha" maskUnits="userSpaceOnUse" x="0" y="0" width="44" height="44">
<path d="M44 0H0V44H44V0Z" fill="#D9D9D9"/>
</mask>
<g mask="url(#mask0_91_4290)">
<path d="M22.0014 43.5522C33.9044 43.5522 43.5536 33.9029 43.5536 22C43.5536 10.097 33.9044 0.447754 22.0014 0.447754C10.0985 0.447754 0.449219 10.097 0.449219 22C0.449219 33.9029 10.0985 43.5522 22.0014 43.5522Z" stroke="#85A6A6" stroke-width="0.977041"/>
<path d="M22.0015 35.5445C29.4819 35.5445 35.546 29.4805 35.546 22C35.546 14.5196 29.4819 8.45557 22.0015 8.45557C14.5211 8.45557 8.45703 14.5196 8.45703 22C8.45703 29.4805 14.5211 35.5445 22.0015 35.5445Z" stroke="#85A6A6" stroke-width="0.977041"/>
</g>
</g>
<defs>
<clipPath id="clip0_91_4290">
<rect width="44" height="44" fill="white"/>
</clipPath>
</defs>
</svg>
