<svg width="213" height="155" viewBox="0 0 213 155" fill="none" xmlns="http://www.w3.org/2000/svg">
<g clip-path="url(#clip0_91_4564)">
<path d="M9.7675 150.693C36.1699 151.25 62.5215 148.717 88.9239 148.565C102.1 148.464 115.276 148.261 128.502 148.514C141.576 148.768 154.65 149.122 167.775 149.426C175.05 149.578 182.324 149.629 189.599 149.629C193.313 149.629 197.026 149.578 200.74 149.629C201.859 149.629 210.864 149.325 210.813 150.744C210.813 150.997 212.797 150.794 212.797 150.186C212.797 150.085 212.797 149.933 212.797 149.832L212.746 149.781C210.558 148.616 207.455 148.97 205.064 148.869C201.859 148.768 198.705 148.818 195.5 148.818C188.887 148.818 182.324 148.818 175.711 148.717C162.484 148.514 149.207 148.16 135.98 147.856C109.476 147.197 82.8702 147.653 56.366 148.869C41.308 149.578 26.1991 150.237 11.141 149.933C10.7849 149.933 10.0219 149.984 9.71663 150.288C9.46227 150.49 9.25878 150.642 9.7675 150.693Z" fill="#223035" fill-opacity="0.26"/>
<path d="M203.743 147.146C204.252 147.501 204.811 147.602 205.422 147.754C206.287 147.957 206.999 148.261 207.762 148.666C208.474 149.021 209.034 149.426 209.695 149.831C210.204 150.186 211.069 150.389 211.425 150.896C211.73 150.744 212.035 150.592 212.34 150.44C210.814 150.744 209.542 151.554 208.169 152.213C207.558 152.517 206.948 152.821 206.388 153.226C206.185 153.378 205.117 154.442 205.117 154.442C205.269 154.493 205.371 154.493 205.524 154.544C205.32 153.48 205.524 152.314 205.574 151.2C205.625 149.882 205.625 148.615 205.676 147.298C205.676 147.095 204.201 147.298 204.201 147.703C204.201 148.514 204.201 149.274 204.15 150.085C204.15 150.744 203.947 151.352 204.303 151.909C204.455 152.213 205.574 151.808 205.727 151.656C206.439 150.896 206.236 149.831 206.745 149.021C206.287 149.173 205.778 149.274 205.32 149.426C205.981 149.679 206.083 151.402 205.727 151.858C205.88 151.757 206.032 151.656 206.236 151.554C206.185 151.554 206.185 151.605 206.134 151.605C206.49 151.605 206.795 151.554 207.152 151.554C206.999 151.25 206.999 151.048 207.05 150.744C207.05 150.592 207.457 149.73 207.101 149.831C206.897 149.831 206.694 149.781 206.49 149.781C207.101 150.896 206.388 151.808 205.32 152.314C205.676 152.365 205.981 152.365 206.338 152.416C205.931 152.669 205.931 153.074 205.574 153.328C205.981 153.226 206.439 153.176 206.846 153.074C206.083 152.466 208.881 150.845 209.237 150.794C209.136 150.693 209.085 150.592 208.983 150.49C208.016 151.048 206.999 151.504 206.083 152.162C205.727 152.416 206.541 152.365 206.592 152.365C206.999 152.264 207.355 152.112 207.762 152.01C208.118 151.96 208.474 152.01 208.83 152.01C209.339 151.96 210 151.808 210.255 151.352C210.306 151.301 210.255 151.25 210.204 151.25C209.492 150.744 208.983 151.301 208.271 151.2C207.762 151.098 208.22 150.642 208.22 150.135C208.22 149.477 207.864 149.375 207.609 148.818C207.202 148.97 206.795 149.122 206.388 149.325C207.152 149.325 207.864 150.034 208.474 150.389C209.034 150.693 209.542 150.794 210.153 150.845C210.458 150.845 211.832 150.338 211.12 150.287C209.695 150.186 208.779 148.767 207.355 148.767C207.202 148.767 205.981 148.97 206.134 149.274C206.287 149.629 206.643 149.882 206.745 150.237C206.846 150.642 206.388 151.149 206.541 151.554C206.694 151.96 207.05 151.96 207.457 151.909C207.864 151.858 210.102 151.504 208.83 151.504C208.118 151.504 207.558 151.808 206.897 151.96C207.05 152.01 207.253 152.061 207.406 152.162C208.22 151.554 209.186 151.149 210.102 150.642C210.509 150.439 210.102 150.338 209.848 150.338C209.085 150.389 204.048 152.568 205.422 153.682C205.676 153.885 206.49 153.581 206.694 153.429C207.202 153.074 207.457 152.618 207.508 152.01C207.508 151.909 207.253 151.909 207.253 151.909C206.49 151.858 205.829 152.112 205.168 152.517C204.557 152.872 205.981 152.72 206.185 152.618C207.406 152.01 208.779 150.997 207.965 149.527C207.864 149.375 207.508 149.426 207.355 149.477C206.287 149.73 204.862 150.896 205.676 152.112C205.829 152.365 206.49 152.112 206.694 152.061C207.304 151.858 207.508 151.554 207.508 150.896C207.508 150.389 207.457 149.274 206.846 149.071C206.49 148.919 205.625 149.122 205.422 149.477C204.913 150.237 205.117 151.301 204.506 152.01C204.964 151.909 205.473 151.808 205.931 151.757C205.625 151.2 205.778 150.541 205.778 149.933C205.829 149.122 205.829 148.362 205.829 147.551C205.32 147.703 204.811 147.805 204.354 147.957C204.303 149.274 204.303 150.541 204.252 151.858C204.252 152.922 204.048 154.138 204.201 155.202C204.201 155.355 204.557 155.304 204.608 155.304C205.727 155.203 206.338 154.594 207.202 153.885C207.864 153.277 208.729 152.872 209.542 152.517C210.356 152.162 211.374 151.453 212.188 151.25C212.239 151.25 213.205 150.997 213.104 150.794C212.798 150.338 212.29 150.237 211.832 149.983C211.12 149.578 210.458 149.071 209.695 148.717C208.983 148.362 208.271 147.906 207.457 147.703C206.694 147.501 205.931 147.501 205.269 146.994C204.862 146.386 203.59 146.994 203.743 147.146Z" fill="#223035" fill-opacity="0.26"/>
<path d="M9.36028 153.378C11.3952 151.453 11.5986 147.197 8.74982 145.879C6.61321 144.916 3.71352 146.031 1.93301 147.247C-0.508838 148.919 -0.712325 152.365 1.98388 153.936C4.17136 155.202 8.19023 154.594 9.5129 152.264C9.91987 151.554 8.39372 151.554 8.08849 152.112C6.96931 154.088 3.51003 153.834 2.23824 152.264C0.762956 150.389 1.83126 148.362 3.76439 147.399C5.1888 146.69 7.22367 145.98 8.44459 147.298C9.91987 148.818 9.56377 151.554 8.13936 152.973C7.42715 153.581 8.90243 153.784 9.36028 153.378Z" fill="#223035" fill-opacity="0.26"/>
<path d="M33.2183 149.73C33.32 144.765 33.6252 139.799 33.4726 134.884C33.32 130.121 32.913 125.358 32.5569 120.595C32.15 115.731 31.743 110.866 31.336 106.053C30.929 100.935 30.4712 95.9187 30.5729 90.801C30.6238 89.5849 30.6238 88.3689 30.6238 87.2034C30.6238 86.7981 30.5221 86.038 30.929 85.7847C31.336 85.4807 32.5061 85.7847 32.9639 85.8353C35.304 85.9367 37.6441 85.582 39.9842 85.6833C42.3752 85.734 44.7662 85.7847 47.1571 85.8353C47.615 85.8353 48.1746 85.7847 48.6324 85.8353C49.599 85.9873 49.4972 86.342 49.5481 87.1528C49.5481 88.1662 49.9042 89.1289 49.9042 90.1423C49.9042 91.1557 49.7516 92.1691 49.8025 93.1825C49.8533 94.4999 50.0568 95.8174 50.0568 97.1855C50.0568 99.6176 50.3112 101.999 50.2094 104.431C50.1077 106.61 50.2603 108.738 50.362 110.917C50.5147 113.299 50.9725 115.68 51.1251 118.062C51.4812 123.382 51.2777 128.804 51.9391 134.124C52.0917 135.34 52.3969 136.607 52.4478 137.823C52.4987 139.039 52.346 140.154 52.5495 141.37C52.753 142.789 52.9565 144.157 52.9565 145.575C52.9565 146.285 52.8548 146.994 52.9056 147.653C52.9565 148.261 53.2109 148.818 53.2109 149.426C53.16 150.136 54.6861 149.882 54.737 149.274C54.7879 148.818 54.6861 148.514 54.5844 148.058C54.4318 147.349 54.4318 146.64 54.4827 145.93C54.5335 144.714 54.5335 143.599 54.33 142.383C54.1266 141.116 53.9231 139.951 54.0248 138.684C54.0757 137.519 53.9231 136.455 53.7196 135.34C53.3126 132.807 53.2617 130.222 53.1091 127.638C52.9565 124.902 52.753 122.166 52.753 119.43C52.753 117.048 52.346 114.768 52.0917 112.387C51.8373 109.802 51.6847 107.117 51.7865 104.482C51.8882 101.898 51.6338 99.3136 51.6338 96.7801C51.6338 95.6653 51.5321 94.6013 51.4304 93.4865C51.3286 92.1691 51.4812 90.8517 51.4812 89.5343C51.4812 88.4195 51.176 87.4061 51.176 86.342C51.176 85.6833 51.0234 85.126 50.362 84.9233C49.5481 84.6193 48.378 84.8219 47.5132 84.8219C46.1906 84.7713 44.8679 84.7713 43.5452 84.7206C41.1034 84.6699 38.6107 84.5179 36.1688 84.7206C34.897 84.8219 33.6761 84.7713 32.4043 84.7206C31.6412 84.7206 30.7256 84.7206 30.0642 85.0753C29.5046 85.3793 29.3011 85.8353 29.1994 86.4434C29.0468 87.6595 29.1485 88.9262 29.1485 90.1423C29.0977 92.7265 29.0468 95.26 29.1994 97.7935C29.5046 103.114 30.0133 108.485 30.4203 113.805C30.8782 119.632 31.336 125.51 31.8447 131.337C32.3534 137.468 31.9465 143.701 31.7939 149.832C31.6921 150.592 33.2183 150.338 33.2183 149.73Z" fill="#223035" fill-opacity="0.26"/>
<path d="M113.952 148.362C114.919 145.221 114.868 141.978 114.766 138.684C114.664 135.188 114.512 131.742 114.308 128.246C113.901 121.254 113.596 114.312 113.342 107.319C112.884 93.2331 112.731 79.0962 112.884 65.0099C112.935 61.1083 112.986 57.2067 113.037 53.305C113.087 51.2782 113.037 49.2008 113.138 47.174C113.24 45.6539 114.054 44.2858 114.105 42.7657C113.749 42.9683 113.393 43.1204 113.037 43.323C115.529 43.3737 117.971 42.9177 120.464 42.6643C122.906 42.3603 125.653 42.0563 128.044 42.867C130.893 43.8804 131.147 46.5153 131.401 49.1501C131.859 53.7611 132.012 58.4227 132.012 63.0844C132.012 72.1037 131.401 81.123 131.35 90.1423C131.3 99.2629 132.317 108.384 132.419 117.504C132.52 127.841 132.113 138.178 132.52 148.514C132.52 148.869 134.047 148.616 133.996 148.109C133.589 138.684 133.894 129.26 133.894 119.835C133.894 115.173 133.792 110.512 133.487 105.85C133.182 101.138 132.826 96.476 132.826 91.7637C132.775 82.3897 133.436 73.0664 133.487 63.7431C133.538 59.0308 133.385 54.3185 132.927 49.6061C132.673 46.9713 132.673 44.0324 130.028 42.6643C127.789 41.4989 124.89 41.6509 122.448 41.9043C119.497 42.1576 116.598 42.7657 113.647 42.715C113.342 42.715 112.63 42.867 112.579 43.2724C112.477 44.6405 111.765 45.8059 111.612 47.174C111.409 48.8461 111.51 50.5689 111.46 52.2916C111.409 55.6865 111.358 59.0815 111.307 62.4764C111.205 69.5195 111.205 76.5627 111.256 83.6565C111.358 97.5908 111.765 111.576 112.528 125.51C112.731 129.361 113.087 133.263 113.138 137.113C113.189 141.015 113.545 144.917 112.375 148.768C112.324 149.021 113.8 148.818 113.952 148.362Z" fill="#223035" fill-opacity="0.26"/>
<path d="M156.989 148.261C157.091 143.295 157.243 138.279 157.142 133.313C157.04 128.55 156.684 123.737 156.379 118.974C156.073 114.16 155.514 109.397 155.259 104.583C155.005 99.6175 154.802 94.7026 154.598 89.7369C154.191 79.8562 153.479 69.9755 153.072 60.0948C152.665 50.0115 153.021 39.9788 153.225 29.8954C153.326 25.0311 153.53 20.1668 153.581 15.3024C153.581 14.3904 153.428 13.5796 153.377 12.7182C153.326 12.1102 153.53 12.2115 154.089 12.0595C154.496 11.9582 154.903 11.8062 155.31 11.6542C157.6 10.9448 160.397 10.8434 162.788 10.8434C165.23 10.8434 167.774 11.0461 170.063 12.0089C170.928 12.3636 171.793 12.8196 172.658 13.1236C173.37 13.377 174.591 13.2249 174.998 13.985C175.608 15.0997 175.099 16.7719 174.998 17.9373C174.845 20.3188 174.845 22.7003 174.743 25.0311C174.54 30.0474 174.184 35.0638 174.184 40.0801C174.184 44.8938 174.285 49.7581 174.184 54.5718C174.031 59.4868 173.828 64.4018 173.726 69.3168C173.624 74.1811 173.878 78.9441 174.184 83.8085C174.794 93.7905 175.812 103.773 175.964 113.755C176.015 116.187 176.219 118.619 176.219 121.051C176.219 123.281 176.575 125.51 176.473 127.689C176.32 132.401 176.219 137.164 176.117 141.876C176.066 144.309 176.015 146.741 175.964 149.122C175.964 149.781 177.44 149.528 177.49 148.97C177.49 148.768 177.49 148.616 177.49 148.413C177.49 147.754 176.015 148.008 175.964 148.565C175.964 148.768 175.964 148.92 175.964 149.122C176.473 149.072 176.982 149.021 177.49 148.97C177.592 143.903 177.745 138.786 177.846 133.719C177.897 131.337 177.999 129.006 178.05 126.625C178.05 125.662 177.846 124.75 177.796 123.787C177.694 122.419 177.745 121.051 177.745 119.683C177.643 114.768 177.541 109.853 177.185 104.938C176.778 99.7696 176.473 94.6519 176.117 89.4835C175.761 84.3152 175.303 79.0961 175.252 73.8771C175.201 68.7088 175.506 63.5404 175.608 58.3214C175.862 48.1873 175.71 38.0533 176.168 27.8686C176.269 25.2338 176.422 22.5989 176.473 19.9641C176.524 18.3426 176.727 16.7212 176.727 15.0997C176.727 14.0863 176.524 12.9716 175.456 12.5662C174.489 12.2115 173.472 12.2115 172.505 11.7555C171.488 11.2995 170.521 10.8941 169.504 10.5901C165.23 9.42468 160.143 9.62736 155.87 10.5394C155.056 10.7421 154.293 11.0461 153.428 11.1981C152.868 11.2995 152.207 11.5022 151.902 12.1102C151.597 12.7689 151.953 13.6303 152.004 14.3397C152.105 15.6571 152.004 17.0252 151.953 18.3426C151.597 28.426 151.291 38.56 151.241 48.694C151.19 58.9294 152.004 69.1141 152.512 79.2988C153.021 89.5342 153.174 99.7696 153.988 110.005C154.802 120.291 155.666 130.526 155.565 140.863C155.514 143.397 155.463 145.93 155.412 148.464C155.463 149.122 156.989 148.818 156.989 148.261Z" fill="#223035" fill-opacity="0.26"/>
<path d="M76.3591 147.703C76.5117 141.065 76.3591 134.478 75.7995 127.891C75.5451 124.8 75.1381 121.709 74.9855 118.568C74.782 115.224 74.6294 111.829 74.4768 108.485C74.1207 101.847 73.5103 95.209 73.3068 88.5205C73.0524 82.0854 73.3068 75.6503 73.4085 69.1645C73.4594 66.0229 73.7646 62.7801 73.6629 59.6385C73.6629 59.3345 73.3068 58.4731 73.5102 58.2197C73.5611 58.1184 75.3925 57.7637 75.1381 57.8144C76.8678 57.4597 78.8009 57.409 80.5814 57.4597C82.4128 57.5104 84.1933 57.7637 85.923 58.4731C86.3299 58.6251 86.7369 58.8278 87.1439 58.9291C87.8052 59.1318 88.7718 58.9798 89.1787 59.6892C89.5349 60.3479 89.2805 61.3106 89.1787 61.9693C89.0261 63.5401 89.077 65.1109 88.9753 66.6817C88.8226 69.9246 88.6192 73.2181 88.5683 76.461C88.5683 79.7546 88.67 83.0481 88.5683 86.3417C88.4665 89.6352 88.3139 92.9795 88.2631 96.273C88.2122 99.4652 88.4157 102.556 88.67 105.748C88.9244 109.397 89.3314 113.045 89.5857 116.693C89.6875 118.467 89.8909 120.24 89.9927 122.013C90.0944 123.787 90.0436 125.56 90.1453 127.334C90.3488 130.678 90.5014 134.022 90.3997 137.367C90.2979 141.116 90.2471 144.815 90.1453 148.565C90.1453 148.767 91.6206 148.565 91.6206 148.159C91.6206 148.058 91.6206 147.906 91.6206 147.805C91.6206 147.602 90.1453 147.805 90.1453 148.21C90.1453 148.311 90.1453 148.463 90.1453 148.565C90.654 148.413 91.1627 148.311 91.6206 148.159C91.7732 141.471 92.0784 134.782 91.6715 128.094C91.468 124.8 91.3662 121.557 91.1627 118.264C90.9593 114.97 90.6032 111.626 90.3488 108.333C90.0944 104.887 89.7383 101.391 89.6875 97.8945C89.6875 94.3982 89.8909 90.902 89.9927 87.4058C90.0944 83.9602 90.0944 80.5146 90.0436 77.069C89.9927 73.7248 90.2471 70.3806 90.3997 67.0363C90.5014 65.3642 90.5014 63.6921 90.6032 62.02C90.654 61.2093 91.0101 60.0439 90.6032 59.2838C90.1453 58.3718 88.8226 58.5744 88.0087 58.2704C86.5334 57.7637 85.1599 57.2063 83.532 57.0543C80.734 56.6996 77.4782 56.801 74.7312 57.4597C74.019 57.6624 73.0015 57.713 72.3911 58.1184C71.5263 58.6758 72.0858 59.7398 72.0858 60.5506C72.035 67.3404 71.7297 74.1808 71.5771 80.9706C71.4245 87.8111 72.0858 94.6516 72.4928 101.441C72.9507 109.245 73.0524 117.048 73.9172 124.851C74.782 132.604 74.9855 140.305 74.8329 148.109C74.8838 148.311 76.3591 148.109 76.3591 147.703Z" fill="#223035" fill-opacity="0.26"/>
<path d="M41.9198 36.6852C47.1596 33.8477 51.4328 29.3381 55.8078 25.4365C60.6406 21.1295 65.4734 16.8225 70.3062 12.4649C69.8993 12.4142 69.4923 12.4142 69.0853 12.3635C72.5955 17.9879 76.5126 23.359 80.4806 28.6793C80.7349 28.9834 81.2945 29.1354 81.5998 28.882C87.7552 24.2204 93.8599 19.4574 100.27 15.1504C102.966 13.3263 105.662 11.5528 108.257 9.57669C109.071 8.96865 108.104 7.70189 107.29 8.30994C104.696 10.2861 101.999 12.0595 99.3031 13.8837C92.8424 18.1906 86.7887 22.9536 80.6332 27.6153C80.9893 27.6659 81.3963 27.7673 81.7524 27.8179C77.7335 22.4976 73.8673 17.1265 70.3062 11.5022C70.001 11.0461 69.3905 11.1475 69.0853 11.4008C64.5069 15.5558 59.9284 19.7614 55.3499 23.9163C50.9241 27.97 46.7017 32.733 41.462 35.9252C41.0041 36.2799 41.5128 36.8879 41.9198 36.6852Z" fill="#223035" fill-opacity="0.26"/>
<path d="M108.258 9.27253C107.241 6.53634 105.257 4.20551 103.273 2.07737C103.12 2.43206 102.917 2.78675 102.764 3.14144C110.955 2.98943 119.043 1.672 127.233 1.46932C126.979 1.11463 126.725 0.759941 126.42 0.40525C123.774 6.84036 121.536 13.4782 118.178 19.6092C118.585 19.5079 118.992 19.4572 119.399 19.3559C117.161 17.8865 115.635 15.657 113.803 13.7822C113.04 12.9714 111.87 13.9342 112.684 14.7449C114.566 16.721 116.093 18.9505 118.433 20.4706C118.891 20.7747 119.399 20.6733 119.654 20.2173C123.011 14.0862 125.199 7.4484 127.844 1.01329C128.047 0.50659 127.64 -0.0507812 127.03 -0.0507812C118.84 0.20257 110.751 1.36798 102.561 1.672C101.899 1.672 101.747 2.48273 102.205 2.88809C104.341 4.91489 105.867 7.24572 107.699 9.42454C107.953 9.77923 108.411 9.57655 108.258 9.27253Z" fill="#223035" fill-opacity="0.26"/>
<path d="M113.242 13.782C110.139 15.4541 107.544 18.3423 104.797 20.5718C101.897 22.9026 98.9467 25.2334 95.9453 27.4629C89.9933 31.8205 83.787 35.8741 77.3771 39.5731C77.7332 39.5731 78.0384 39.6237 78.3946 39.6237C74.2231 35.4688 70.5603 30.9085 67.4571 25.9428C67.1519 25.4868 66.4397 25.4868 66.1345 25.8415C62.5226 29.9457 58.7072 33.8473 54.6883 37.4956C53.62 38.4583 52.5517 39.3704 51.4834 40.3331C50.8729 40.8398 49.0924 42.8666 48.2785 42.7653C47.7698 42.7146 46.2436 40.0798 45.8875 39.6237C44.9209 38.357 44.0052 37.0902 43.0387 35.8235C42.3773 34.9621 41.1056 35.8741 41.716 36.6849C42.8352 38.1543 43.9035 39.6237 45.0227 41.0932C45.7349 42.0052 46.498 43.576 47.5154 44.184C48.2785 44.6401 48.8889 44.3867 49.5503 43.9814C50.8729 43.12 52.0939 41.9039 53.2639 40.8398C58.3002 36.4822 62.9804 31.7699 67.4062 26.8042C66.9484 26.7535 66.5414 26.7535 66.0836 26.7028C69.2376 31.7699 73.0021 36.4315 77.3262 40.6371C77.5806 40.8905 78.0384 40.8398 78.3437 40.6878C84.957 36.8369 91.3668 32.6313 97.4715 28.0709C100.473 25.8415 103.423 23.5106 106.221 21.0785C108.714 18.9503 111.868 16.7208 113.598 13.934C113.75 13.8326 113.445 13.6806 113.242 13.782Z" fill="#223035" fill-opacity="0.26"/>
</g>
<defs>
<clipPath id="clip0_91_4564">
<rect width="213" height="155" fill="white"/>
</clipPath>
</defs>
</svg>
