<svg width="166" height="145" viewBox="0 0 166 145" fill="none" xmlns="http://www.w3.org/2000/svg">
<g clip-path="url(#clip0_91_4650)">
<path d="M71.865 82.2889C71.348 82.2027 70.8741 82.332 70.4432 82.6336C69.1938 83.1506 68.2891 84.3138 68.8491 85.7787C69.5385 87.6312 72.2096 87.5881 73.3298 86.1664C74.4069 84.7446 73.7176 82.5474 71.865 82.2889Z" fill="#223035" fill-opacity="0.26"/>
<path d="M6.03178 136.315C6.37644 133.601 9.04761 132.438 10.814 130.757C12.9682 128.646 14.6915 126.018 16.7595 123.821C20.8524 119.427 24.256 114.73 27.4442 109.604C27.5303 109.431 27.6596 109.259 27.7458 109.13C28.0043 108.225 28.3058 108.053 28.6936 108.613C29.0383 108.785 29.4691 109.69 29.6845 109.991C30.3738 110.939 31.0201 111.715 31.8387 112.533C33.9498 114.601 36.0178 116.669 38.0427 118.78C39.8091 120.59 41.5755 122.313 43.3419 124.08C44.5483 125.286 45.7115 126.578 46.6163 128.043C47.1763 128.948 47.8226 129.853 48.5981 130.585C48.7704 130.757 49.0289 130.757 49.2013 130.585C50.0198 129.939 49.9337 128.646 50.1922 127.742C50.7523 125.587 52.1309 123.864 53.1218 121.925C54.1558 119.814 55.4053 117.962 56.0515 115.678C56.7839 113.136 57.7748 110.724 59.1104 108.44C61.3938 104.477 63.4187 100.341 65.5729 96.3339C66.5638 94.5244 67.7702 92.758 68.5026 90.8192C69.235 88.9235 70.1828 86.9417 71.2168 85.1753C70.9583 85.1322 70.6998 85.0891 70.4413 85.0891C71.9492 89.2251 73.2417 93.4042 74.922 97.454C75.9129 99.8236 76.5161 102.322 77.3777 104.778C78.1963 107.191 79.4457 109.474 80.0058 111.973C80.9537 115.98 83.0647 119.857 85.262 123.304C86.5976 125.372 87.7177 127.569 88.9241 129.723C89.8719 131.49 90.6043 133.558 91.8106 135.152C91.9399 135.324 92.1984 135.454 92.4138 135.324C93.2324 134.807 93.4909 133.903 94.0079 133.084C94.9988 131.447 96.2913 129.982 97.3684 128.388C99.6949 124.941 102.237 121.71 104.822 118.436C107.019 115.635 109.087 112.878 111.543 110.293C112.103 109.733 112.663 109.173 113.223 108.57C113.482 108.311 114.257 107.148 114.602 107.062C115.506 106.76 117.359 109.259 117.962 109.819C120.633 112.275 123.606 114.386 126.234 116.928C127.139 117.789 127.958 118.694 128.948 119.47C129.939 120.245 131.706 122.442 132.998 122.701C133.731 122.83 134.118 122.442 134.592 121.925C135.669 120.762 136.531 119.297 137.479 118.048C138.556 116.583 139.504 115.075 140.495 113.524C141.529 111.887 142.951 110.508 144.071 108.957C146.483 105.597 149.111 102.193 151.136 98.5742C152.989 95.2137 154.755 91.8963 156.737 88.622C156.866 88.4065 156.737 88.0619 156.479 87.9757C156.436 87.9757 156.393 87.9326 156.306 87.9326C155.746 87.8034 155.531 88.622 156.091 88.7512C156.134 88.7512 156.177 88.7943 156.263 88.7943C156.177 88.5789 156.091 88.3635 156.005 88.148C154.325 90.8623 152.946 93.6627 151.352 96.42C149.585 99.5651 147.388 102.322 145.492 105.338C143.511 108.483 140.926 111.198 138.944 114.343C137.953 115.98 136.703 117.402 135.583 118.953C135.196 119.513 134.851 120.073 134.463 120.633C133.472 121.968 132.697 121.451 131.663 120.59C130.284 119.383 128.905 118.349 127.699 117.014C126.708 115.937 125.416 114.903 124.295 113.955C121.538 111.672 118.479 109.604 116.196 106.803C114.946 105.295 114.472 106.028 113.223 107.363C111.026 109.733 108.57 111.93 106.631 114.515C104.219 117.703 101.677 120.805 99.3071 123.993C98.0146 125.717 96.9806 127.569 95.6881 129.293C94.9988 130.197 94.3095 131.102 93.6632 132.05C93.1893 132.739 92.7154 134.118 91.983 134.592C92.1984 134.635 92.3707 134.678 92.5861 134.764C91.466 133.299 90.7766 131.318 89.8719 129.68C88.7517 127.612 87.6747 125.501 86.4252 123.519C83.9264 119.642 81.9015 115.635 80.6952 111.198C80.092 108.957 78.9718 106.846 78.1963 104.649C77.4639 102.495 76.9469 100.254 76.0852 98.1434C74.3188 93.792 72.854 89.3544 71.2599 84.9599C71.1307 84.6152 70.6567 84.529 70.4844 84.8737C68.9765 87.4587 68.0287 90.3453 66.5207 92.9303C64.6251 96.2046 63.031 99.6082 61.1784 102.839C59.4982 105.769 57.8179 108.785 56.4823 111.887C55.6638 113.783 55.276 115.808 54.4574 117.66C53.6819 119.34 52.7341 121.064 51.8293 122.701C51.1831 123.864 50.4076 124.898 49.8906 126.148C49.589 126.837 49.3736 127.483 49.2013 128.216C49.072 128.819 49.2874 129.379 48.555 129.422C48.1242 129.422 46.6163 126.665 46.2285 126.148C45.0653 124.683 43.6866 123.476 42.4372 122.098C40.0676 119.47 37.3103 117.1 34.8545 114.515C33.7343 113.395 32.528 112.275 31.494 111.111C30.46 109.991 29.8138 108.526 28.7798 107.449C28.6074 107.277 28.3489 107.32 28.1766 107.449C27.2288 108.225 26.7118 109.302 26.0655 110.336C25.1608 111.801 24.2129 113.266 23.222 114.73C20.8524 118.134 18.1382 121.15 15.3378 124.209C13.1405 126.621 11.3741 129.422 8.78911 131.49C7.02269 132.912 5.47169 134.118 5.17011 136.488C5.08394 136.875 5.94561 136.875 6.03178 136.315Z" fill="#223035" fill-opacity="0.26"/>
<path d="M149.285 92.8874C152.086 91.4226 154.585 89.7854 157.04 87.8467C156.782 87.7605 156.566 87.6313 156.308 87.5451C156.653 91.0779 156.351 94.7831 156.351 98.3159C156.351 98.876 157.213 98.876 157.213 98.3159C157.213 94.7831 157.514 91.0779 157.17 87.5451C157.126 87.1574 156.739 86.985 156.437 87.2435C154.024 89.1392 151.569 90.7333 148.854 92.155C148.337 92.4135 148.768 93.1459 149.285 92.8874Z" fill="#223035" fill-opacity="0.26"/>
<path d="M115.677 102.495C115.16 102.409 114.687 102.538 114.256 102.84C113.006 103.357 112.102 104.52 112.662 105.985C113.351 107.837 116.022 107.794 117.142 106.372C118.219 104.994 117.487 102.753 115.677 102.495Z" fill="#223035" fill-opacity="0.26"/>
<path d="M29.2986 104.993C28.7816 104.907 28.3076 105.037 27.8768 105.338C26.6274 105.855 25.7226 107.018 26.2827 108.483C26.9721 110.336 29.6432 110.293 30.7634 108.871C31.7974 107.449 31.1081 105.209 29.2986 104.993Z" fill="#223035" fill-opacity="0.26"/>
<path d="M7.45256 7.88402C6.03081 5.47136 4.86756 2.88636 3.96281 0.215195C3.91973 -0.000221527 3.53198 -0.0863881 3.40273 0.172112C2.06714 2.62786 1.93789 5.64369 0.171479 7.88402C0.0853124 7.97019 0.0853124 8.09944 0.128396 8.18561C0.0853124 8.27177 0.0422291 8.31486 0.0422291 8.40102C-0.00085422 8.57336 0.0853124 8.74569 0.257646 8.78877C0.343812 8.83186 0.473062 8.83186 0.559229 8.83186C0.645395 8.96111 0.774645 9.04727 0.946979 9.00419C1.11931 8.96111 1.24856 8.91802 1.4209 8.87494C1.85173 8.83186 2.32564 8.78877 2.79956 8.70261C2.92881 8.65952 3.05806 8.65952 3.23039 8.65952C3.70431 23.2648 4.13514 37.87 4.22131 52.5183C4.26439 57.0421 4.60906 132.05 4.69523 136.574C4.69523 137.263 5.77231 137.392 5.77231 136.66C5.98773 128.56 5.34148 50.0195 5.16914 41.9629C4.99681 33.9494 4.73831 25.9359 4.35056 17.9224C4.17823 14.8204 4.00589 11.6754 3.79048 8.57336C4.91064 8.44411 6.03081 8.40102 7.15098 8.40102C7.40948 8.40102 7.58181 8.09944 7.45256 7.88402Z" fill="#223035" fill-opacity="0.26"/>
<path d="M165.828 139.719C165.57 139.59 165.311 139.461 165.053 139.375C165.01 139.288 164.967 139.202 164.837 139.159C164.708 139.116 164.579 139.116 164.407 139.073C163.631 138.728 162.856 138.384 162.08 137.996C161.003 137.522 160.098 136.703 159.021 136.229C158.806 136.143 158.547 136.229 158.547 136.531C158.461 137.694 158.418 138.858 158.332 140.021C140.926 140.365 123.564 140.624 106.158 140.452C100.945 140.408 15.0799 139.547 9.09131 139.547C8.66047 138.125 7.49722 137.005 6.07547 136.488C5.94622 136.359 5.73081 136.316 5.47231 136.359C5.42922 136.359 5.34306 136.402 5.29997 136.402C3.40431 136.962 2.02564 138.771 1.85331 140.71C1.63789 142.95 4.05056 144.114 5.98931 144.243C7.97114 144.329 9.30672 142.649 9.26364 140.753C20.5084 141.141 109.088 141.744 118.308 141.701C127.57 141.658 136.833 141.486 146.096 141.184C150.146 141.055 154.196 140.882 158.246 140.667C158.203 141.055 158.203 141.443 158.16 141.83C157.987 142.477 157.815 143.123 157.599 143.726C157.513 143.941 157.729 144.114 157.901 144.157C159.194 144.2 160.271 143.381 161.348 142.821C162.856 142.003 164.32 141.141 165.785 140.279C166.001 140.15 166.044 139.805 165.828 139.719ZM5.90314 142.864C5.34306 142.821 4.69681 142.606 4.22289 142.347C3.36122 141.916 3.18889 141.27 3.40431 140.279C3.66281 139.159 4.52447 138.168 5.60156 137.78C6.67864 138.125 7.54031 138.944 7.84189 140.064C8.18656 141.443 7.49722 142.994 5.90314 142.864ZM159.107 140.926V141.658C159.021 141.787 158.935 141.873 158.849 142.003V141.959C158.935 141.615 159.021 141.27 159.107 140.926Z" fill="#223035" fill-opacity="0.26"/>
<path d="M5.51467 84.6588C9.95226 79.1011 13.3128 72.5955 18.095 67.3824C20.3784 64.8836 22.231 61.9108 24.1697 59.1966C24.5575 58.6365 25.0745 56.3531 25.7207 56.1377C26.367 55.9222 26.367 56.6547 26.5824 57.0855C26.9271 57.6456 27.3579 58.1195 27.8318 58.5934C33.1742 63.9788 35.8884 71.2168 40.7137 76.9469C41.7908 78.2394 43.2126 79.1011 44.2897 80.3936C44.7636 80.9536 45.7976 83.1078 46.6592 83.3232C47.4778 83.5386 47.9948 82.7631 48.5118 82.2461C49.8043 80.9536 51.183 79.7042 52.6047 78.4979C53.8111 77.4639 54.7589 76.1714 55.9652 75.0943C57.387 73.8018 58.8949 72.5955 60.3167 71.2599C61.6953 69.9674 63.1171 68.718 64.4527 67.3824C65.9606 65.8314 67.1238 64.582 69.3211 65.7883C72.38 67.4686 75.999 67.684 79.4026 68.4595C81.3844 68.9334 83.3231 69.4504 85.2619 70.0966C86.2097 70.4413 87.6315 71.3461 88.7516 71.0014C89.958 70.6567 90.992 68.8472 91.7244 67.9425C92.7153 66.7362 93.2323 65.2713 94.094 63.9788C95.0418 62.5571 96.0327 61.2215 96.9806 59.7997C98.1869 58.0764 98.9624 56.0084 99.9102 54.1127C101.504 50.9677 103.185 47.9518 104.52 44.6775C104.908 43.7727 106.071 40.2399 107.45 40.4123C107.794 40.4553 108.441 41.1878 108.699 41.3601C109.561 41.9633 110.423 42.4372 111.327 42.9111C113.223 43.9451 115.032 45.1945 116.928 46.2285C117.919 46.7886 118.953 46.9609 119.987 47.4348C120.935 47.9087 121.883 48.5119 122.831 48.9858C123.692 49.4167 125.028 50.5799 126.062 50.2783C127.354 49.9337 128.862 47.6933 129.81 46.7886C131.232 45.3668 132.309 43.8158 133.429 42.1356C134.032 41.2308 134.549 40.1968 135.152 39.2921C135.712 38.5166 136.445 37.9996 137.048 37.3103C138.47 35.6731 139.547 33.8205 141.227 32.3557C142.692 31.1063 144.286 29.8999 145.062 28.0904C145.148 27.875 145.105 27.6165 144.889 27.4873C144.846 27.4442 144.803 27.4442 144.76 27.4011C144.286 27.0995 143.855 27.875 144.329 28.1335C144.372 28.1766 144.415 28.1766 144.458 28.2197C144.415 28.0043 144.372 27.8319 144.286 27.6165C143.467 29.4691 141.83 30.5893 140.322 31.9248C139.159 32.9588 138.254 34.079 137.35 35.3284C136.316 36.7933 134.937 37.9134 133.989 39.4213C132.869 41.2739 131.749 43.2127 130.37 44.8498C129.336 46.0131 128.173 47.2625 126.967 48.2965C125.76 49.2874 125.243 49.2012 123.951 48.5119C123.003 47.9949 122.012 47.5641 121.064 47.004C119.384 46.0992 117.617 45.6253 116.023 44.5913C114.343 43.5142 112.534 42.5664 110.81 41.5755C110.121 41.1878 109.432 40.7569 108.785 40.283C108.527 40.1107 107.751 39.249 107.277 39.1198C106.717 38.9905 106.416 39.249 106.071 39.6368C104.089 41.9202 103.141 45.4961 101.935 48.2103C101.16 49.9337 100.169 51.5277 99.3071 53.208C98.4023 54.9744 97.6699 56.9132 96.6359 58.5934C95.7742 60.0152 94.6541 61.3938 93.7062 62.8156C92.6291 64.4527 91.8106 66.2622 90.6042 67.8132C89.7856 68.8041 89.5271 69.4504 88.2346 69.6227C87.2006 69.752 86.8129 69.5797 85.8651 69.235C83.8401 68.5457 81.7291 67.9425 79.618 67.4686C77.8516 67.0377 76.0851 66.6069 74.2756 66.3484C73.2416 66.1761 72.3369 66.0899 71.346 65.7022C70.4843 65.3575 69.795 64.7543 68.9764 64.4097C66.4776 63.3757 65.1851 65.3144 63.591 66.8654C60.8767 69.5366 57.9902 72.0354 55.1036 74.5342C52.6047 76.6884 50.5367 79.3596 47.9517 81.4276C46.5731 82.5046 46.4438 81.5137 45.6683 80.4366C45.3237 79.9627 44.9359 79.5319 44.5482 79.1011C43.2987 77.7655 41.9201 76.7746 40.7999 75.3097C38.4303 72.2939 36.5347 68.9765 34.4667 65.7452C33.4757 64.1942 32.6141 62.514 31.4939 61.0061C30.4599 59.6274 29.2105 58.5934 28.0903 57.3009C27.1856 56.31 26.4962 53.3803 25.0314 55.4914C24.1267 56.7839 23.5235 58.2057 22.5757 59.4982C21.5848 60.8768 20.7662 62.4278 19.7753 63.8065C18.4397 65.7022 16.6733 67.167 15.2946 69.0196C14.1313 70.5706 13.0543 72.3801 11.9772 74.0172C9.77992 77.4208 7.45342 80.6951 4.91151 83.8402C4.56684 84.4865 5.17001 85.0896 5.51467 84.6588Z" fill="#223035" fill-opacity="0.26"/>
<path d="M136.617 31.2785C138.513 30.7184 140.452 29.9429 142.261 29.1243C143.597 28.5212 144.674 27.6164 145.966 26.9702C145.751 26.884 145.536 26.7978 145.32 26.7117C145.579 28.2627 145.105 29.986 144.846 31.537C144.588 33.1311 144.329 34.8113 143.985 36.3623C144.243 36.3192 144.458 36.2331 144.717 36.19C144.674 36.1469 144.588 36.1038 144.545 36.0176C144.114 35.673 143.511 36.2761 143.941 36.6208C143.985 36.6639 144.071 36.707 144.114 36.7931C144.329 37.0086 144.76 36.9224 144.846 36.6208C145.277 34.7682 145.579 32.8295 145.837 30.9769C146.053 29.5121 146.44 28.0042 146.182 26.5393C146.139 26.2377 145.751 26.1516 145.536 26.2808C144.157 27.0132 142.951 28.0042 141.486 28.6073C139.805 29.2967 138.125 30.0291 136.402 30.5461C135.885 30.5891 136.1 31.4077 136.617 31.2785Z" fill="#223035" fill-opacity="0.26"/>
<path d="M107.45 37.698C106.933 37.6118 106.502 37.7411 106.114 37.9996C104.951 38.4735 104.09 39.5936 104.607 40.9723C105.296 42.7387 107.795 42.6526 108.829 41.317C109.82 40.0245 109.13 37.9565 107.45 37.698Z" fill="#223035" fill-opacity="0.26"/>
<path d="M66.7782 62.1262C66.2612 62.04 65.8303 62.1693 65.4426 62.4278C64.2793 62.9017 63.4177 64.0219 63.9347 65.4005C64.624 67.1669 67.1228 67.0808 68.1568 65.7452C69.1478 64.4527 68.5015 62.3416 66.7782 62.1262Z" fill="#223035" fill-opacity="0.26"/>
<path d="M26.0243 51.5276C25.5073 51.4414 25.0764 51.5706 24.6887 51.8291C23.5254 52.3031 22.6638 53.4232 23.1808 54.8019C23.8701 56.5683 26.3689 56.4821 27.4029 55.1466C28.3938 53.8541 27.7476 51.743 26.0243 51.5276Z" fill="#223035" fill-opacity="0.26"/>
</g>
<defs>
<clipPath id="clip0_91_4650">
<rect width="166" height="144.286" fill="white"/>
</clipPath>
</defs>
</svg>
