<svg width="289" height="289" viewBox="0 0 289 289" fill="none" xmlns="http://www.w3.org/2000/svg">
<path d="M99.1689 142.583C131.911 151.735 164.584 161.178 197.464 169.969C223.442 176.923 249.797 182.555 275.638 190.023C280.875 191.534 288.051 198.608 288.258 203.278C289.46 230.75 288.841 258.221 288.841 288.834C257.507 288.834 227.563 289.401 197.671 288.268C192.898 288.096 187.369 281.108 183.935 276.059C155.966 234.853 128.408 193.371 96.851 152.663V287.821H0.30649C0.30649 258.306 -0.328784 229.581 0.890256 200.926C1.11346 195.775 8.18733 189.319 13.6472 186.401C39.5905 172.544 66.0831 159.685 95.4603 144.936C66.0831 130.17 39.9854 116.537 13.3897 103.969C3.79191 99.4366 -0.277274 94.0109 0.0146081 83.0911C0.804408 56.3409 0.289321 29.625 0.289321 1.63867H96.1642C96.1642 41.7983 95.9925 81.0308 96.3187 120.263C96.3187 127.836 98.3448 135.389 99.4436 142.944L99.1689 142.583Z" fill="#AEB3B3"/>
<path d="M99.4926 142.944C129.179 97.5135 158.762 51.9455 188.774 6.77238C190.08 5.06536 191.726 3.64927 193.61 2.61455C195.492 1.57983 197.571 0.949232 199.711 0.763029C228.471 0.265111 257.229 0.436807 288.684 0.436807C288.684 31.342 288.941 60.5303 288.323 89.8388C288.323 92.9808 283.704 97.9943 280.391 98.8013C220.074 113.756 159.603 128.11 99.1836 142.583L99.4926 142.944Z" fill="#AEB3B3"/>
</svg>
