<svg width="109" height="179" viewBox="0 0 109 179" fill="none" xmlns="http://www.w3.org/2000/svg">
<path d="M73.6867 179C72.5821 179 71.6867 178.105 71.6867 177V113.597C71.6867 112.057 70.02 111.095 68.6867 111.865L13.5518 143.696C12.5928 144.25 11.3664 143.919 10.8162 142.958L0.990191 125.797C0.442748 124.84 0.771682 123.622 1.72584 123.071L56.8614 91.2386C58.1973 90.4673 58.194 88.5379 56.8555 87.7711L1.735 56.1944C0.77672 55.6454 0.444772 54.4236 0.993511 53.4652L10.8162 36.3092C11.3664 35.3482 12.5928 35.0172 13.5518 35.5709L68.6867 67.4025C70.02 68.1723 71.6867 67.2101 71.6867 65.6705V2C71.6867 0.895432 72.5821 0 73.6867 0H93.3137C94.4182 0 95.3137 0.895431 95.3137 2V65.6705C95.3137 67.2101 96.9803 68.1723 98.3137 67.4025L153.448 35.5709C154.408 35.0172 155.634 35.3482 156.184 36.3092L166.007 53.4652C166.555 54.4236 166.223 55.6454 165.265 56.1943L110.145 87.7711C108.807 88.5379 108.803 90.4673 110.139 91.2386L165.274 123.071C166.228 123.622 166.557 124.84 166.01 125.797L156.184 142.958C155.634 143.919 154.408 144.25 153.448 143.696L98.3137 111.865C96.9803 111.095 95.3137 112.057 95.3137 113.597V177C95.3137 178.105 94.4182 179 93.3137 179H73.6867Z" fill="#F0F0F0"/>
</svg>
