<svg width="51" height="51" viewBox="0 0 51 51" fill="none" xmlns="http://www.w3.org/2000/svg">
<path d="M42.2272 20.6567C42.2272 18.4297 39.5348 17.3141 37.9598 18.8886L7.61753 49.2198C7.03172 49.8054 6.08212 49.8053 5.49641 49.2196L1.76804 45.4913C1.18217 44.9054 1.18226 43.9555 1.76823 43.3697L32.1082 13.0408C33.6836 11.466 32.5683 8.77273 30.3408 8.77273H2C1.17157 8.77273 0.5 8.10115 0.5 7.27273V2C0.5 1.17157 1.17157 0.5 2 0.5H49C49.8284 0.5 50.5 1.17157 50.5 2V49C50.5 49.8284 49.8284 50.5 49 50.5H43.7272C42.8988 50.5 42.2272 49.8284 42.2272 49V20.6567Z" stroke="white"/>
</svg>
