<svg width="313" height="70" viewBox="0 0 313 70" fill="none" xmlns="http://www.w3.org/2000/svg">
<path d="M0.669873 65L5 69.3301L9.33013 65L5 60.6699L0.669873 65ZM205.5 65V65.75H205.936L206.152 65.3715L205.5 65ZM240 4.5V3.75H239.564L239.348 4.12848L240 4.5ZM305 4.5C305 6.70914 306.791 8.5 309 8.5C311.209 8.5 313 6.70914 313 4.5C313 2.29086 311.209 0.5 309 0.5C306.791 0.5 305 2.29086 305 4.5ZM5 65.75H7.50625V64.25H5V65.75ZM12.5187 65.75H17.5312V64.25H12.5187V65.75ZM22.5438 65.75H27.5563V64.25H22.5438V65.75ZM32.5688 65.75H37.5813V64.25H32.5688V65.75ZM42.5938 65.75H47.6063V64.25H42.5938V65.75ZM52.6188 65.75H57.6313V64.25H52.6188V65.75ZM62.6438 65.75H67.6563V64.25H62.6438V65.75ZM72.6688 65.75H77.6813V64.25H72.6688V65.75ZM82.6937 65.75H87.7062V64.25H82.6937V65.75ZM92.7187 65.75H97.7312V64.25H92.7187V65.75ZM102.744 65.75H107.756V64.25H102.744V65.75ZM112.769 65.75H117.781V64.25H112.769V65.75ZM122.794 65.75H127.806V64.25H122.794V65.75ZM132.819 65.75H137.831V64.25H132.819V65.75ZM142.844 65.75H147.856V64.25H142.844V65.75ZM152.869 65.75H157.881V64.25H152.869V65.75ZM162.894 65.75H167.906V64.25H162.894V65.75ZM172.919 65.75H177.931V64.25H172.919V65.75ZM182.944 65.75H187.956V64.25H182.944V65.75ZM192.969 65.75H197.981V64.25H192.969V65.75ZM202.994 65.75H205.5V64.25H202.994V65.75ZM206.152 65.3715L207.384 63.2108L206.081 62.4678L204.848 64.6285L206.152 65.3715ZM209.848 58.8894L212.312 54.568L211.009 53.8249L208.545 58.1463L209.848 58.8894ZM214.777 50.2465L217.241 45.9251L215.938 45.182L213.473 49.5035L214.777 50.2465ZM219.705 41.6037L222.169 37.2822L220.866 36.5392L218.402 40.8606L219.705 41.6037ZM224.634 32.9608L227.098 28.6394L225.795 27.8963L223.331 32.2178L224.634 32.9608ZM229.562 24.3179L232.027 19.9965L230.723 19.2535L228.259 23.5749L229.562 24.3179ZM234.491 15.6751L236.955 11.3537L235.652 10.6106L233.188 14.932L234.491 15.6751ZM239.419 7.03223L240.652 4.87152L239.348 4.12848L238.116 6.28918L239.419 7.03223ZM240 5.25H242.464V3.75H240V5.25ZM247.393 5.25H252.321V3.75H247.393V5.25ZM257.25 5.25H262.179V3.75H257.25V5.25ZM267.107 5.25H272.036V3.75H267.107V5.25ZM276.964 5.25H281.893V3.75H276.964V5.25ZM286.821 5.25H291.75V3.75H286.821V5.25ZM296.679 5.25H301.607V3.75H296.679V5.25ZM306.536 5.25H309V3.75H306.536V5.25ZM0.669873 65L5 69.3301L9.33013 65L5 60.6699L0.669873 65ZM205.5 65V65.75H205.936L206.152 65.3715L205.5 65ZM240 4.5V3.75H239.564L239.348 4.12848L240 4.5ZM305 4.5C305 6.70914 306.791 8.5 309 8.5C311.209 8.5 313 6.70914 313 4.5C313 2.29086 311.209 0.5 309 0.5C306.791 0.5 305 2.29086 305 4.5ZM5 65.75H7.50625V64.25H5V65.75ZM12.5187 65.75H17.5312V64.25H12.5187V65.75ZM22.5438 65.75H27.5563V64.25H22.5438V65.75ZM32.5688 65.75H37.5813V64.25H32.5688V65.75ZM42.5938 65.75H47.6063V64.25H42.5938V65.75ZM52.6188 65.75H57.6313V64.25H52.6188V65.75ZM62.6438 65.75H67.6563V64.25H62.6438V65.75ZM72.6688 65.75H77.6813V64.25H72.6688V65.75ZM82.6937 65.75H87.7062V64.25H82.6937V65.75ZM92.7187 65.75H97.7312V64.25H92.7187V65.75ZM102.744 65.75H107.756V64.25H102.744V65.75ZM112.769 65.75H117.781V64.25H112.769V65.75ZM122.794 65.75H127.806V64.25H122.794V65.75ZM132.819 65.75H137.831V64.25H132.819V65.75ZM142.844 65.75H147.856V64.25H142.844V65.75ZM152.869 65.75H157.881V64.25H152.869V65.75ZM162.894 65.75H167.906V64.25H162.894V65.75ZM172.919 65.75H177.931V64.25H172.919V65.75ZM182.944 65.75H187.956V64.25H182.944V65.75ZM192.969 65.75H197.981V64.25H192.969V65.75ZM202.994 65.75H205.5V64.25H202.994V65.75ZM206.152 65.3715L207.384 63.2108L206.081 62.4678L204.848 64.6285L206.152 65.3715ZM209.848 58.8894L212.312 54.568L211.009 53.8249L208.545 58.1463L209.848 58.8894ZM214.777 50.2465L217.241 45.9251L215.938 45.182L213.473 49.5035L214.777 50.2465ZM219.705 41.6037L222.169 37.2822L220.866 36.5392L218.402 40.8606L219.705 41.6037ZM224.634 32.9608L227.098 28.6394L225.795 27.8963L223.331 32.2178L224.634 32.9608ZM229.562 24.3179L232.027 19.9965L230.723 19.2535L228.259 23.5749L229.562 24.3179ZM234.491 15.6751L236.955 11.3537L235.652 10.6106L233.188 14.932L234.491 15.6751ZM239.419 7.03223L240.652 4.87152L239.348 4.12848L238.116 6.28918L239.419 7.03223ZM240 5.25H242.464V3.75H240V5.25ZM247.393 5.25H252.321V3.75H247.393V5.25ZM257.25 5.25H262.179V3.75H257.25V5.25ZM267.107 5.25H272.036V3.75H267.107V5.25ZM276.964 5.25H281.893V3.75H276.964V5.25ZM286.821 5.25H291.75V3.75H286.821V5.25ZM296.679 5.25H301.607V3.75H296.679V5.25ZM306.536 5.25H309V3.75H306.536V5.25Z" fill="#223035" fill-opacity="0.45"/>
</svg>
