<svg width="41" height="41" viewBox="0 0 41 41" fill="none" xmlns="http://www.w3.org/2000/svg">
<g clip-path="url(#clip0_160_2740)">
<path d="M0.000911458 14.7878C0.0970052 14.254 0.182422 13.7201 0.310547 13.1863C1.47435 8.18941 5.93737 4.61259 11.073 4.5592C12.696 4.53785 14.3296 4.54853 15.9525 4.5592C16.9027 4.5592 17.6074 5.24254 17.6181 6.13941C17.6288 7.05764 16.9134 7.75165 15.9525 7.75165C14.4043 7.76233 12.8561 7.75165 11.3079 7.75165C6.74883 7.76233 3.21471 11.2858 3.20404 15.8342C3.20404 16.8592 3.20404 17.8842 3.20404 18.9412C3.37487 18.9412 3.52435 18.9412 3.66315 18.9412C6.65273 18.9412 9.64232 18.9412 12.6319 18.9412C15.5467 18.9412 17.6181 21.0233 17.6181 23.9274C17.6181 26.4793 17.6181 29.0418 17.6181 31.5936C17.6181 34.423 15.5147 36.5157 12.6853 36.5157C10.1121 36.5157 7.53893 36.5157 4.95508 36.5157C2.44596 36.5157 0.566797 34.9675 0.0542969 32.5011C0.0436198 32.4477 0.0115885 32.405 -0.00976562 32.3623C0.000911458 26.5113 0.000911458 20.6496 0.000911458 14.7878ZM3.20404 22.1337C3.20404 22.3045 3.20404 22.422 3.20404 22.5501C3.20404 25.561 3.20404 28.5613 3.20404 31.5722C3.20404 32.672 3.85534 33.3233 4.97643 33.3233C7.53893 33.3233 10.1014 33.3233 12.6533 33.3233C13.7637 33.3233 14.415 32.672 14.415 31.5615C14.415 29.0204 14.415 26.4793 14.415 23.9381C14.415 22.7743 13.7743 22.1444 12.6105 22.1444C9.62096 22.1444 6.64206 22.1444 3.65247 22.1444C3.51367 22.1337 3.38555 22.1337 3.20404 22.1337Z" fill="#001111"/>
<path d="M41.0004 32.3621C40.7868 33.1735 40.5413 33.9636 40.0074 34.6363C39.0465 35.8321 37.8079 36.4941 36.2811 36.5048C33.5585 36.5261 30.8358 36.5261 28.1131 36.5048C25.54 36.4834 23.3939 34.348 23.3939 31.7748C23.3832 26.3829 23.3618 20.991 23.3939 15.5884C23.4259 9.89749 27.8142 5.10348 33.4837 4.61233C35.4803 4.4415 37.509 4.52691 39.5269 4.53759C40.317 4.54827 40.7548 5.0928 41.0004 5.79749C41.0004 6.01103 41.0004 6.22457 41.0004 6.43811C40.7441 6.77978 40.5519 7.21754 40.221 7.45243C39.922 7.6553 39.4736 7.69801 39.0892 7.70868C37.242 7.75139 35.3736 7.6553 33.5371 7.81545C30.0777 8.11441 27.0134 11.1894 26.6931 14.6381C26.565 16.0261 26.629 17.4248 26.6077 18.8235C26.6077 18.8449 26.6397 18.8662 26.6717 18.9089C26.7999 18.9089 26.9493 18.9089 27.0988 18.9089C30.1204 18.9089 33.1527 18.8983 36.1743 18.9089C37.8506 18.9196 39.2173 19.603 40.1355 20.991C40.5413 21.6102 40.7228 22.3683 41.0111 23.0623C41.0004 26.1907 41.0004 29.2764 41.0004 32.3621ZM26.5863 22.1334C26.5863 22.3149 26.5863 22.4431 26.5863 22.5819C26.5863 25.5608 26.5863 28.5397 26.5863 31.5293C26.5863 32.6931 27.2269 33.3337 28.3907 33.3337C30.9212 33.3337 33.4624 33.3337 35.9928 33.3337C37.1566 33.3337 37.7973 32.6931 37.7973 31.5293C37.7973 28.9988 37.7973 26.4683 37.7973 23.9379C37.7973 22.774 37.1566 22.1334 35.9928 22.1334C33.0032 22.1334 30.0243 22.1334 27.0348 22.1334C26.9066 22.1334 26.7678 22.1334 26.5863 22.1334Z" fill="#001111"/>
</g>
<defs>
<clipPath id="clip0_160_2740">
<rect width="41" height="41" fill="white"/>
</clipPath>
</defs>
</svg>
