<svg width="139" height="139" viewBox="0 0 139 139" fill="none" xmlns="http://www.w3.org/2000/svg">
<path id="Vector" d="M57.804 139C56.6994 139 55.804 138.105 55.804 137V88.9819C55.804 87.4433 54.1392 86.4809 52.8059 87.2488L10.9318 111.365C9.97367 111.917 8.74953 111.587 8.19911 110.628L0.994125 98.0747C0.444848 97.1177 0.774385 95.8967 1.73056 95.346L43.5868 71.2397C44.9252 70.4689 44.922 68.5365 43.581 67.7701L1.73972 43.8593C0.77943 43.3106 0.446879 42.0865 0.997454 41.1273L8.19911 28.5799C8.74953 27.6209 9.97368 27.2905 10.9319 27.8424L52.8059 51.9588C54.1392 52.7267 55.804 51.7643 55.804 50.2257V2C55.804 0.895428 56.6994 0 57.804 0H72.1963C73.3008 0 74.1963 0.89543 74.1963 2V50.2257C74.1963 51.7643 75.8611 52.7267 77.1944 51.9588L119.068 27.8424C120.027 27.2905 121.251 27.6209 121.801 28.5799L129.003 41.1273C129.553 42.0866 129.221 43.3105 128.26 43.8593L86.4195 67.7701C85.0785 68.5365 85.0753 70.4689 86.4137 71.2397L128.269 95.346C129.226 95.8967 129.555 97.1177 129.006 98.0747L121.801 110.628C121.251 111.587 120.027 111.917 119.068 111.365L77.1944 87.2488C75.8611 86.4809 74.1963 87.4433 74.1963 88.9819V137C74.1963 138.105 73.3008 139 72.1963 139H57.804Z" fill="white"/>
</svg>
