<svg width="97" height="97" viewBox="0 0 97 97" fill="none" xmlns="http://www.w3.org/2000/svg">
<g clip-path="url(#clip0_167_147)">
<path d="M97.0019 81.4887C95.9362 82.8148 95.4152 82.9332 93.7575 82.3649C81.5141 78.2206 69.2707 74.0763 57.0273 69.8847C56.3642 69.6479 55.9616 69.7663 55.4643 70.2399C50.278 75.4025 45.0681 80.5414 39.8818 85.6567C39.5976 85.9408 39.2898 86.225 38.9345 86.4381C37.7741 87.1249 36.3532 86.4381 36.1401 85.112C36.0927 84.7804 36.1164 84.4252 36.1164 84.07C36.1164 77.3681 36.1164 70.6425 36.1164 63.9406C36.1164 63.5854 36.1164 63.2538 36.1164 62.8275C35.3112 62.5434 34.5298 62.2592 33.7483 61.9987C23.1626 58.4228 12.6006 54.8232 2.01486 51.2472C1.09128 50.9394 0.309787 50.4894 0.21506 49.4237C0.120333 48.287 0.878146 47.7423 1.75437 47.2924C32.3984 31.7809 63.0424 16.2221 93.6865 0.663236C95.3205 -0.165622 95.9836 0.000149654 97.0019 1.49209C97.0019 28.1576 97.0019 54.8231 97.0019 81.4887ZM93.1892 8.88077C75.9726 25.9315 58.5903 43.1718 41.0896 60.5067C55.1328 65.2668 69.0339 69.9794 83.0297 74.7157C83.0297 74.2658 83.0297 73.9106 83.0297 73.579C83.0297 67.9428 83.0297 62.3065 83.0297 56.6466C83.0297 56.2677 83.0297 55.8888 83.1245 55.5099C83.3139 54.6337 84.1191 54.018 84.9716 54.0417C85.8005 54.0653 86.5346 54.6337 86.7241 55.4862C86.8188 55.8415 86.8188 56.244 86.8188 56.5993C86.8188 62.7802 86.8188 68.9611 86.8425 75.1183C86.8425 75.4262 86.9372 75.9472 87.103 75.9945C89.0922 76.7287 91.1289 77.3917 93.2129 78.1022C93.1892 54.8468 93.1892 31.6388 93.1892 8.88077ZM7.01169 48.9027C7.46164 49.0922 7.74582 49.2106 8.03 49.3053C17.4079 52.4787 26.8095 55.652 36.1875 58.8727C36.8742 59.1095 37.2531 58.9911 37.7268 58.4938C54.3039 41.8219 70.9284 25.1737 87.5056 8.52554C87.7187 8.31241 87.9082 8.09927 88.0976 7.86246C88.0739 7.83877 88.0502 7.79141 88.0029 7.76773C61.0532 21.4557 34.1272 35.1437 7.01169 48.9027ZM39.9292 80.352C43.9787 76.1603 47.8625 72.1344 51.7463 68.1322C47.9809 66.8534 44.0024 65.5036 39.9292 64.13C39.9292 69.5294 39.9292 74.8105 39.9292 80.352Z" fill="white"/>
<path d="M49.9212 97.0006C48.2398 95.7455 48.1687 94.7509 49.6607 93.2589C53.8997 89.0199 58.115 84.8046 62.354 80.5656C62.6382 80.2814 62.9461 79.9972 63.3013 79.7841C64.0117 79.3578 65.0064 79.4999 65.551 80.1156C66.1431 80.7787 66.2378 81.5365 65.8115 82.2943C65.5984 82.6732 65.2669 82.9811 64.959 83.3126C60.9331 87.3385 56.9072 91.3881 52.8814 95.3903C52.313 95.9586 51.6736 96.4796 51.0579 97.0006C50.679 97.0006 50.3001 97.0006 49.9212 97.0006Z" fill="white"/>
<path d="M11.5131 87.8825C9.76065 87.8352 8.88443 86.2959 9.59488 85.0644C9.80802 84.7092 10.0922 84.425 10.3764 84.1172C14.6864 79.8071 18.9965 75.497 23.3302 71.1633C24.538 69.9555 25.651 69.7661 26.5273 70.6423C27.4035 71.4948 27.2377 72.6316 26.0299 73.8393C21.6962 78.1731 17.3625 82.5305 12.9814 86.8642C12.484 87.3379 11.8446 87.6694 11.5131 87.8825Z" fill="white"/>
<path d="M6.51514 88.8066C7.53345 88.8066 8.3623 89.6355 8.38599 90.6538C8.38599 91.6721 7.55713 92.501 6.53882 92.5247C5.52051 92.5247 4.69165 91.6958 4.66797 90.6775C4.66797 89.6592 5.49683 88.8066 6.51514 88.8066Z" fill="white"/>
<path d="M84.9023 50.4656C83.9314 50.4656 83.0315 49.5894 83.0078 48.5947C83.0078 47.6238 83.884 46.7239 84.8787 46.7002C85.8496 46.7002 86.7495 47.5764 86.7732 48.571C86.7732 49.542 85.897 50.4419 84.9023 50.4656Z" fill="white"/>
</g>
<defs>
<clipPath id="clip0_167_147">
<rect width="97" height="97" fill="white"/>
</clipPath>
</defs>
</svg>
