<svg width="107" height="179" viewBox="0 0 107 179" fill="none" xmlns="http://www.w3.org/2000/svg">
<path d="M13.6867 179C12.5821 179 11.6867 178.105 11.6867 177V113.597C11.6867 112.057 10.02 111.095 8.6867 111.865L-46.4482 143.696C-47.4072 144.25 -48.6336 143.919 -49.1838 142.958L-59.0098 125.797C-59.5573 124.84 -59.2283 123.622 -58.2742 123.071L-3.13864 91.2386C-1.8027 90.4673 -1.80595 88.5379 -3.14447 87.7711L-58.265 56.1944C-59.2233 55.6454 -59.5552 54.4236 -59.0065 53.4652L-49.1838 36.3092C-48.6336 35.3482 -47.4072 35.0172 -46.4482 35.5709L8.6867 67.4025C10.02 68.1723 11.6867 67.2101 11.6867 65.6705V2C11.6867 0.895432 12.5821 0 13.6867 0H33.3137C34.4182 0 35.3137 0.895431 35.3137 2V65.6705C35.3137 67.2101 36.9803 68.1723 38.3137 67.4025L93.4485 35.5709C94.4075 35.0172 95.6339 35.3482 96.1841 36.3092L106.007 53.4652C106.555 54.4236 106.223 55.6454 105.265 56.1943L50.1451 87.7711C48.8066 88.5379 48.8033 90.4673 50.1393 91.2386L105.274 123.071C106.228 123.622 106.557 124.84 106.01 125.797L96.1841 142.958C95.6339 143.919 94.4075 144.25 93.4485 143.696L38.3137 111.865C36.9803 111.095 35.3137 112.057 35.3137 113.597V177C35.3137 178.105 34.4182 179 33.3137 179H13.6867Z" fill="white"/>
</svg>
