<svg width="41" height="41" viewBox="0 0 41 41" fill="none" xmlns="http://www.w3.org/2000/svg">
<g clip-path="url(#clip0_91_6563)">
<path d="M-0.00104167 14.7878C0.0950521 14.254 0.180469 13.7201 0.308594 13.1863C1.4724 8.18941 5.93542 4.61259 11.0711 4.5592C12.694 4.53785 14.3276 4.54853 15.9505 4.5592C16.9008 4.5592 17.6055 5.24254 17.6161 6.13941C17.6268 7.05764 16.9115 7.75165 15.9505 7.75165C14.4023 7.76233 12.8542 7.75165 11.306 7.75165C6.74688 7.76233 3.21276 11.2858 3.20208 15.8342C3.20208 16.8592 3.20208 17.8842 3.20208 18.9412C3.37292 18.9412 3.5224 18.9412 3.6612 18.9412C6.65078 18.9412 9.64036 18.9412 12.6299 18.9412C15.5448 18.9412 17.6161 21.0233 17.6161 23.9274C17.6161 26.4793 17.6161 29.0418 17.6161 31.5936C17.6161 34.423 15.5128 36.5157 12.6833 36.5157C10.1102 36.5157 7.53698 36.5157 4.95312 36.5157C2.44401 36.5157 0.564844 34.9675 0.0523438 32.5011C0.0416667 32.4477 0.00963542 32.405 -0.0117188 32.3623C-0.00104167 26.5113 -0.00104167 20.6496 -0.00104167 14.7878ZM3.20208 22.1337C3.20208 22.3045 3.20208 22.422 3.20208 22.5501C3.20208 25.561 3.20208 28.5613 3.20208 31.5722C3.20208 32.672 3.85339 33.3233 4.97448 33.3233C7.53698 33.3233 10.0995 33.3233 12.6513 33.3233C13.7617 33.3233 14.413 32.672 14.413 31.5615C14.413 29.0204 14.413 26.4793 14.413 23.9381C14.413 22.7743 13.7724 22.1444 12.6086 22.1444C9.61901 22.1444 6.6401 22.1444 3.65052 22.1444C3.51172 22.1337 3.38359 22.1337 3.20208 22.1337Z" fill="white"/>
<path d="M40.9984 32.3621C40.7849 33.1735 40.5393 33.9636 40.0055 34.6363C39.0445 35.8321 37.806 36.4941 36.2792 36.5048C33.5565 36.5261 30.8338 36.5261 28.1112 36.5048C25.538 36.4834 23.3919 34.348 23.3919 31.7748C23.3812 26.3829 23.3599 20.991 23.3919 15.5884C23.4239 9.89749 27.8122 5.10348 33.4818 4.61233C35.4784 4.4415 37.507 4.52691 39.525 4.53759C40.3151 4.54827 40.7529 5.0928 40.9984 5.79749C40.9984 6.01103 40.9984 6.22457 40.9984 6.43811C40.7422 6.77978 40.55 7.21754 40.219 7.45243C39.92 7.6553 39.4716 7.69801 39.0872 7.70868C37.2401 7.75139 35.3716 7.6553 33.5351 7.81545C30.0758 8.11441 27.0114 11.1894 26.6911 14.6381C26.563 16.0261 26.6271 17.4248 26.6057 18.8235C26.6057 18.8449 26.6378 18.8662 26.6698 18.9089C26.7979 18.9089 26.9474 18.9089 27.0969 18.9089C30.1185 18.9089 33.1508 18.8983 36.1724 18.9089C37.8487 18.9196 39.2154 19.603 40.1336 20.991C40.5393 21.6102 40.7208 22.3683 41.0091 23.0623C40.9984 26.1907 40.9984 29.2764 40.9984 32.3621ZM26.5844 22.1334C26.5844 22.3149 26.5844 22.4431 26.5844 22.5819C26.5844 25.5608 26.5844 28.5397 26.5844 31.5293C26.5844 32.6931 27.225 33.3337 28.3888 33.3337C30.9193 33.3337 33.4604 33.3337 35.9909 33.3337C37.1547 33.3337 37.7953 32.6931 37.7953 31.5293C37.7953 28.9988 37.7953 26.4683 37.7953 23.9379C37.7953 22.774 37.1547 22.1334 35.9909 22.1334C33.0013 22.1334 30.0224 22.1334 27.0328 22.1334C26.9047 22.1334 26.7659 22.1334 26.5844 22.1334Z" fill="white"/>
</g>
<defs>
<clipPath id="clip0_91_6563">
<rect width="41" height="41" fill="white"/>
</clipPath>
</defs>
</svg>
