<svg width="142" height="32" viewBox="0 0 142 32" fill="none" xmlns="http://www.w3.org/2000/svg">
<path d="M44.4766 26V5.62891H52.2969C53.7643 5.62891 54.9857 5.86133 55.9609 6.32617C56.9362 6.7819 57.6654 7.41081 58.1484 8.21289C58.6315 9.00586 58.873 9.90365 58.873 10.9062C58.873 11.7357 58.7135 12.4466 58.3945 13.0391C58.0846 13.6224 57.6608 14.0964 57.123 14.4609C56.5853 14.8255 55.9837 15.0898 55.3184 15.2539V15.459C56.0475 15.4863 56.7402 15.7051 57.3965 16.1152C58.0618 16.5163 58.6042 17.0814 59.0234 17.8105C59.4518 18.5397 59.666 19.4193 59.666 20.4492C59.666 21.5065 59.4108 22.4544 58.9004 23.293C58.3991 24.1224 57.6335 24.7832 56.6035 25.2754C55.5827 25.7585 54.293 26 52.7344 26H44.4766ZM48.168 22.9238H52.1328C53.4727 22.9238 54.4388 22.6641 55.0312 22.1445C55.6328 21.625 55.9336 20.9642 55.9336 20.1621C55.9336 19.5514 55.7832 19.0046 55.4824 18.5215C55.1816 18.0384 54.7533 17.6556 54.1973 17.373C53.6504 17.0905 53.0033 16.9492 52.2559 16.9492H48.168V22.9238ZM48.168 14.2969H51.832C52.4609 14.2969 53.0306 14.1784 53.541 13.9414C54.0514 13.7044 54.4525 13.3717 54.7441 12.9434C55.0449 12.5059 55.1953 11.9909 55.1953 11.3984C55.1953 10.6146 54.9173 9.96745 54.3613 9.45703C53.8053 8.9375 52.9896 8.67773 51.9141 8.67773H48.168V14.2969ZM61.5598 26V5.62891H74.8216V8.71875H65.2512V14.1875H74.1106V17.2363H65.2512V22.9102H74.8762V26H61.5598ZM80.0377 10.7148L83.1138 16.375L86.2447 10.7148H90.0591L85.4654 18.3711L90.1412 26H86.3541L83.1138 20.5039L79.9283 26H76.1138L80.7486 18.3711L76.2232 10.7148H80.0377ZM91.5291 31.7148V10.7148H95.0565V13.2441H95.2752C95.4575 12.8796 95.7173 12.4876 96.0545 12.0684C96.3918 11.64 96.8475 11.2754 97.4217 10.9746C98.0051 10.6738 98.7479 10.5234 99.6502 10.5234C100.826 10.5234 101.888 10.8242 102.836 11.4258C103.784 12.0273 104.536 12.9115 105.092 14.0781C105.657 15.2448 105.939 16.6803 105.939 18.3848C105.939 20.0618 105.666 21.4883 105.119 22.6641C104.572 23.8398 103.82 24.7376 102.863 25.3574C101.915 25.9681 100.84 26.2734 99.6366 26.2734C98.7707 26.2734 98.0461 26.1276 97.4627 25.8359C96.8885 25.5352 96.4237 25.1797 96.0682 24.7695C95.7218 24.3503 95.4575 23.9538 95.2752 23.5801H95.1248V31.7148H91.5291ZM98.6522 23.3203C99.4452 23.3203 100.106 23.1061 100.635 22.6777C101.172 22.2493 101.578 21.6615 101.851 20.9141C102.125 20.1667 102.262 19.319 102.262 18.3711C102.262 17.4232 102.125 16.5801 101.851 15.8418C101.578 15.1035 101.177 14.5247 100.648 14.1055C100.12 13.6862 99.4543 13.4766 98.6522 13.4766C97.8774 13.4766 97.2212 13.6771 96.6834 14.0781C96.1548 14.4792 95.7492 15.0488 95.4666 15.7871C95.1932 16.5163 95.0565 17.3776 95.0565 18.3711C95.0565 19.3555 95.1932 20.2214 95.4666 20.9688C95.7492 21.707 96.1593 22.2858 96.6971 22.7051C97.2349 23.1152 97.8866 23.3203 98.6522 23.3203ZM114.423 26.3008C112.892 26.3008 111.57 25.9818 110.458 25.3438C109.346 24.6966 108.489 23.7852 107.888 22.6094C107.295 21.4336 106.999 20.0482 106.999 18.4531C106.999 16.8763 107.295 15.4954 107.888 14.3105C108.48 13.1165 109.314 12.1868 110.39 11.5215C111.465 10.8561 112.732 10.5234 114.191 10.5234C115.129 10.5234 116.018 10.6738 116.857 10.9746C117.704 11.2754 118.452 11.7402 119.099 12.3691C119.755 12.998 120.27 13.8001 120.644 14.7754C121.017 15.7415 121.204 16.8945 121.204 18.2344V19.3555H108.681V16.9355H119.413L117.732 17.6465C117.732 16.7806 117.599 16.0286 117.335 15.3906C117.071 14.7435 116.679 14.2376 116.159 13.873C115.64 13.5085 114.993 13.3262 114.218 13.3262C113.443 13.3262 112.782 13.5085 112.235 13.873C111.689 14.2376 111.274 14.7298 110.991 15.3496C110.709 15.9603 110.568 16.6439 110.568 17.4004V19.082C110.568 20.0117 110.727 20.8092 111.046 21.4746C111.374 22.1309 111.83 22.6322 112.413 22.9785C113.006 23.3249 113.694 23.498 114.478 23.498C114.988 23.498 115.453 23.4251 115.872 23.2793C116.301 23.1335 116.665 22.9147 116.966 22.623C117.276 22.3223 117.513 21.9531 117.677 21.5156L121.04 21.9121C120.821 22.7962 120.416 23.571 119.823 24.2363C119.24 24.8926 118.488 25.403 117.568 25.7676C116.656 26.123 115.608 26.3008 114.423 26.3008ZM122.879 26V10.7148H126.366V13.2852H126.53C126.803 12.3919 127.282 11.7083 127.965 11.2344C128.649 10.7513 129.428 10.5098 130.303 10.5098C130.495 10.5098 130.713 10.5189 130.959 10.5371C131.215 10.5553 131.424 10.5781 131.588 10.6055V13.9141C131.433 13.8594 131.192 13.8138 130.864 13.7773C130.536 13.7409 130.221 13.7227 129.92 13.7227C129.255 13.7227 128.662 13.8639 128.143 14.1465C127.623 14.429 127.213 14.8164 126.912 15.3086C126.621 15.8008 126.475 16.375 126.475 17.0312V26H122.879ZM141.097 10.7148V13.5039H132.334V10.7148H141.097ZM134.48 7.07812H138.076V21.4062C138.076 22.0078 138.208 22.4544 138.472 22.7461C138.737 23.0286 139.156 23.1699 139.73 23.1699C139.885 23.1699 140.058 23.1562 140.25 23.1289C140.441 23.1016 140.614 23.0697 140.769 23.0332L141.384 25.8496C141.002 25.9681 140.614 26.0547 140.222 26.1094C139.83 26.1732 139.438 26.2051 139.047 26.2051C137.625 26.2051 136.508 25.8314 135.697 25.084C134.886 24.3275 134.48 23.2975 134.48 21.9941V7.07812Z" fill="#223035"/>
<path d="M10.9806 15.7665C14.6061 16.7798 18.2239 17.8255 21.8645 18.7988C24.741 19.5688 27.6592 20.1924 30.5204 21.0194C31.1003 21.1867 31.8949 21.97 31.9178 22.487C32.0509 25.5289 31.9824 28.5707 31.9824 31.9604C28.5129 31.9604 25.1973 32.0231 21.8874 31.8977C21.359 31.8787 20.7467 31.1048 20.3666 30.5459C17.2695 25.9832 14.2182 21.3901 10.724 16.8826V31.8482H0.0339366C0.0339366 28.5801 -0.0364051 25.3995 0.098575 22.2266C0.12329 21.6562 0.906555 20.9414 1.51111 20.6183C4.38372 19.084 7.31716 17.6601 10.57 16.027C7.31716 14.3921 4.42745 12.8825 1.4826 11.4909C0.419865 10.989 -0.0307016 10.3883 0.00161751 9.17914C0.0890694 6.21718 0.0320356 3.25902 0.0320356 0.160187H10.6479C10.6479 4.60693 10.6289 8.95101 10.665 13.2951C10.665 14.1335 10.8894 14.9699 11.0111 15.8064L10.9806 15.7665Z" fill="#85A6A6"/>
<path d="M11.0147 15.8064C14.3017 10.7761 17.5774 5.73048 20.9005 0.72861C21.0451 0.539597 21.2273 0.382798 21.4359 0.268227C21.6444 0.153656 21.8746 0.083832 22.1115 0.0632145C25.296 0.0080817 28.4803 0.027093 31.9632 0.027093C31.9632 3.44912 31.9917 6.68104 31.9233 9.92627C31.9233 10.2742 31.4118 10.8293 31.045 10.9187C24.3663 12.5745 17.6705 14.1639 10.9805 15.7665L11.0147 15.8064Z" fill="#85A6A6"/>
</svg>
