<svg width="142" height="32" viewBox="0 0 142 32" fill="none" xmlns="http://www.w3.org/2000/svg">
<path d="M44.4766 25.9761V5.60498H52.2969C53.7643 5.60498 54.9857 5.8374 55.9609 6.30225C56.9362 6.75798 57.6654 7.38688 58.1484 8.18896C58.6315 8.98193 58.873 9.87972 58.873 10.8823C58.873 11.7118 58.7135 12.4227 58.3945 13.0151C58.0846 13.5985 57.6608 14.0724 57.123 14.437C56.5853 14.8016 55.9837 15.0659 55.3184 15.23V15.4351C56.0475 15.4624 56.7402 15.6812 57.3965 16.0913C58.0618 16.4924 58.6042 17.0575 59.0234 17.7866C59.4518 18.5158 59.666 19.3953 59.666 20.4253C59.666 21.4826 59.4108 22.4305 58.9004 23.269C58.3991 24.0985 57.6335 24.7593 56.6035 25.2515C55.5827 25.7345 54.293 25.9761 52.7344 25.9761H44.4766ZM48.168 22.8999H52.1328C53.4727 22.8999 54.4388 22.6401 55.0312 22.1206C55.6328 21.6011 55.9336 20.9403 55.9336 20.1382C55.9336 19.5275 55.7832 18.9806 55.4824 18.4976C55.1816 18.0145 54.7533 17.6317 54.1973 17.3491C53.6504 17.0666 53.0033 16.9253 52.2559 16.9253H48.168V22.8999ZM48.168 14.2729H51.832C52.4609 14.2729 53.0306 14.1545 53.541 13.9175C54.0514 13.6805 54.4525 13.3478 54.7441 12.9194C55.0449 12.4819 55.1953 11.967 55.1953 11.3745C55.1953 10.5907 54.9173 9.94352 54.3613 9.43311C53.8053 8.91357 52.9896 8.65381 51.9141 8.65381H48.168V14.2729ZM61.5598 25.9761V5.60498H74.8216V8.69482H65.2512V14.1636H74.1106V17.2124H65.2512V22.8862H74.8762V25.9761H61.5598ZM80.0377 10.6909L83.1138 16.3511L86.2447 10.6909H90.0591L85.4654 18.3472L90.1412 25.9761H86.3541L83.1138 20.48L79.9283 25.9761H76.1138L80.7486 18.3472L76.2232 10.6909H80.0377ZM91.5291 31.6909V10.6909H95.0565V13.2202H95.2752C95.4575 12.8556 95.7173 12.4637 96.0545 12.0444C96.3918 11.616 96.8475 11.2515 97.4217 10.9507C98.0051 10.6499 98.7479 10.4995 99.6502 10.4995C100.826 10.4995 101.888 10.8003 102.836 11.4019C103.784 12.0034 104.536 12.8875 105.092 14.0542C105.657 15.2209 105.939 16.6564 105.939 18.3608C105.939 20.0379 105.666 21.4644 105.119 22.6401C104.572 23.8159 103.82 24.7137 102.863 25.3335C101.915 25.9442 100.84 26.2495 99.6366 26.2495C98.7707 26.2495 98.0461 26.1037 97.4627 25.812C96.8885 25.5112 96.4237 25.1558 96.0682 24.7456C95.7218 24.3263 95.4575 23.9299 95.2752 23.5562H95.1248V31.6909H91.5291ZM98.6522 23.2964C99.4452 23.2964 100.106 23.0822 100.635 22.6538C101.172 22.2254 101.578 21.6375 101.851 20.8901C102.125 20.1427 102.262 19.2951 102.262 18.3472C102.262 17.3993 102.125 16.5562 101.851 15.8179C101.578 15.0796 101.177 14.5008 100.648 14.0815C100.12 13.6623 99.4543 13.4526 98.6522 13.4526C97.8774 13.4526 97.2212 13.6532 96.6834 14.0542C96.1548 14.4552 95.7492 15.0249 95.4666 15.7632C95.1932 16.4924 95.0565 17.3537 95.0565 18.3472C95.0565 19.3315 95.1932 20.1974 95.4666 20.9448C95.7492 21.6831 96.1593 22.2619 96.6971 22.6812C97.2349 23.0913 97.8866 23.2964 98.6522 23.2964ZM114.423 26.2769C112.892 26.2769 111.57 25.9578 110.458 25.3198C109.346 24.6727 108.489 23.7612 107.888 22.5854C107.295 21.4097 106.999 20.0243 106.999 18.4292C106.999 16.8524 107.295 15.4715 107.888 14.2866C108.48 13.0926 109.314 12.1629 110.39 11.4976C111.465 10.8322 112.732 10.4995 114.191 10.4995C115.129 10.4995 116.018 10.6499 116.857 10.9507C117.704 11.2515 118.452 11.7163 119.099 12.3452C119.755 12.9741 120.27 13.7762 120.644 14.7515C121.017 15.7176 121.204 16.8706 121.204 18.2104V19.3315H108.681V16.9116H119.413L117.732 17.6226C117.732 16.7567 117.599 16.0047 117.335 15.3667C117.071 14.7196 116.679 14.2137 116.159 13.8491C115.64 13.4845 114.993 13.3022 114.218 13.3022C113.443 13.3022 112.782 13.4845 112.235 13.8491C111.689 14.2137 111.274 14.7059 110.991 15.3257C110.709 15.9364 110.568 16.62 110.568 17.3765V19.0581C110.568 19.9878 110.727 20.7853 111.046 21.4507C111.374 22.1069 111.83 22.6082 112.413 22.9546C113.006 23.3009 113.694 23.4741 114.478 23.4741C114.988 23.4741 115.453 23.4012 115.872 23.2554C116.301 23.1095 116.665 22.8908 116.966 22.5991C117.276 22.2983 117.513 21.9292 117.677 21.4917L121.04 21.8882C120.821 22.7723 120.416 23.547 119.823 24.2124C119.24 24.8687 118.488 25.3791 117.568 25.7437C116.656 26.0991 115.608 26.2769 114.423 26.2769ZM122.879 25.9761V10.6909H126.366V13.2612H126.53C126.803 12.368 127.282 11.6844 127.965 11.2104C128.649 10.7274 129.428 10.4858 130.303 10.4858C130.495 10.4858 130.713 10.495 130.959 10.5132C131.215 10.5314 131.424 10.5542 131.588 10.5815V13.8901C131.433 13.8354 131.192 13.7899 130.864 13.7534C130.536 13.717 130.221 13.6987 129.92 13.6987C129.255 13.6987 128.662 13.84 128.143 14.1226C127.623 14.4051 127.213 14.7925 126.912 15.2847C126.621 15.7769 126.475 16.3511 126.475 17.0073V25.9761H122.879ZM141.097 10.6909V13.48H132.334V10.6909H141.097ZM134.48 7.0542H138.076V21.3823C138.076 21.9839 138.208 22.4305 138.472 22.7222C138.737 23.0047 139.156 23.146 139.73 23.146C139.885 23.146 140.058 23.1323 140.25 23.105C140.441 23.0776 140.614 23.0457 140.769 23.0093L141.384 25.8257C141.002 25.9442 140.614 26.0308 140.222 26.0854C139.83 26.1493 139.438 26.1812 139.047 26.1812C137.625 26.1812 136.508 25.8075 135.697 25.0601C134.886 24.3035 134.48 23.2736 134.48 21.9702V7.0542Z" fill="#223035"/>
<path d="M10.9806 15.7426C14.6061 16.7559 18.2239 17.8015 21.8645 18.7749C24.741 19.5449 27.6592 20.1685 30.5204 20.9954C31.1003 21.1628 31.8949 21.946 31.9178 22.4631C32.0509 25.505 31.9824 28.5467 31.9824 31.9365C28.5129 31.9365 25.1973 31.9992 21.8874 31.8738C21.359 31.8547 20.7467 31.0809 20.3666 30.5219C17.2695 25.9593 14.2182 21.3662 10.724 16.8587V31.8242H0.0339366C0.0339366 28.5562 -0.0364051 25.3756 0.098575 22.2027C0.12329 21.6323 0.906555 20.9174 1.51111 20.5944C4.38372 19.06 7.31716 17.6362 10.57 16.0031C7.31716 14.3681 4.42745 12.8586 1.4826 11.467C0.419865 10.9651 -0.0307016 10.3643 0.00161751 9.15521C0.0890694 6.19326 0.0320356 3.2351 0.0320356 0.136261H10.6479C10.6479 4.583 10.6289 8.92709 10.665 13.2712C10.665 14.1096 10.8894 14.946 11.0111 15.7825L10.9806 15.7426Z" fill="#FF503D"/>
<path d="M11.0166 15.7825C14.3037 10.7521 17.5793 5.70656 20.9025 0.704684C21.0471 0.515671 21.2293 0.358872 21.4379 0.244301C21.6464 0.12973 21.8765 0.0599063 22.1135 0.0392887C25.2979 -0.0158441 28.4823 0.00316723 31.9652 0.00316723C31.9652 3.4252 31.9937 6.65712 31.9252 9.90235C31.9252 10.2503 31.4138 10.8054 31.0469 10.8947C24.3682 12.5506 17.6725 14.14 10.9824 15.7426L11.0166 15.7825Z" fill="#FF503D"/>
</svg>
