<svg width="142" height="32" viewBox="0 0 142 32" fill="none" xmlns="http://www.w3.org/2000/svg">
<path d="M44.4766 25.9766V5.60547H52.2969C53.7643 5.60547 54.9857 5.83789 55.9609 6.30273C56.9362 6.75846 57.6654 7.38737 58.1484 8.18945C58.6315 8.98242 58.873 9.88021 58.873 10.8828C58.873 11.7122 58.7135 12.4232 58.3945 13.0156C58.0846 13.599 57.6608 14.0729 57.123 14.4375C56.5853 14.8021 55.9837 15.0664 55.3184 15.2305V15.4355C56.0475 15.4629 56.7402 15.6816 57.3965 16.0918C58.0618 16.4928 58.6042 17.0579 59.0234 17.7871C59.4518 18.5163 59.666 19.3958 59.666 20.4258C59.666 21.4831 59.4108 22.431 58.9004 23.2695C58.3991 24.099 57.6335 24.7598 56.6035 25.252C55.5827 25.735 54.293 25.9766 52.7344 25.9766H44.4766ZM48.168 22.9004H52.1328C53.4727 22.9004 54.4388 22.6406 55.0312 22.1211C55.6328 21.6016 55.9336 20.9408 55.9336 20.1387C55.9336 19.528 55.7832 18.9811 55.4824 18.498C55.1816 18.015 54.7533 17.6322 54.1973 17.3496C53.6504 17.0671 53.0033 16.9258 52.2559 16.9258H48.168V22.9004ZM48.168 14.2734H51.832C52.4609 14.2734 53.0306 14.1549 53.541 13.918C54.0514 13.681 54.4525 13.3483 54.7441 12.9199C55.0449 12.4824 55.1953 11.9674 55.1953 11.375C55.1953 10.5911 54.9173 9.94401 54.3613 9.43359C53.8053 8.91406 52.9896 8.6543 51.9141 8.6543H48.168V14.2734ZM61.5598 25.9766V5.60547H74.8216V8.69531H65.2512V14.1641H74.1106V17.2129H65.2512V22.8867H74.8762V25.9766H61.5598ZM80.0377 10.6914L83.1138 16.3516L86.2447 10.6914H90.0591L85.4654 18.3477L90.1412 25.9766H86.3541L83.1138 20.4805L79.9283 25.9766H76.1138L80.7486 18.3477L76.2232 10.6914H80.0377ZM91.5291 31.6914V10.6914H95.0565V13.2207H95.2752C95.4575 12.8561 95.7173 12.4642 96.0545 12.0449C96.3918 11.6165 96.8475 11.252 97.4217 10.9512C98.0051 10.6504 98.7479 10.5 99.6502 10.5C100.826 10.5 101.888 10.8008 102.836 11.4023C103.784 12.0039 104.536 12.888 105.092 14.0547C105.657 15.2214 105.939 16.6569 105.939 18.3613C105.939 20.0384 105.666 21.4648 105.119 22.6406C104.572 23.8164 103.82 24.7142 102.863 25.334C101.915 25.9447 100.84 26.25 99.6366 26.25C98.7707 26.25 98.0461 26.1042 97.4627 25.8125C96.8885 25.5117 96.4237 25.1562 96.0682 24.7461C95.7218 24.3268 95.4575 23.9303 95.2752 23.5566H95.1248V31.6914H91.5291ZM98.6522 23.2969C99.4452 23.2969 100.106 23.0827 100.635 22.6543C101.172 22.2259 101.578 21.638 101.851 20.8906C102.125 20.1432 102.262 19.2956 102.262 18.3477C102.262 17.3997 102.125 16.5566 101.851 15.8184C101.578 15.0801 101.177 14.5013 100.648 14.082C100.12 13.6628 99.4543 13.4531 98.6522 13.4531C97.8774 13.4531 97.2212 13.6536 96.6834 14.0547C96.1548 14.4557 95.7492 15.0254 95.4666 15.7637C95.1932 16.4928 95.0565 17.3542 95.0565 18.3477C95.0565 19.332 95.1932 20.1979 95.4666 20.9453C95.7492 21.6836 96.1593 22.2624 96.6971 22.6816C97.2349 23.0918 97.8866 23.2969 98.6522 23.2969ZM114.423 26.2773C112.892 26.2773 111.57 25.9583 110.458 25.3203C109.346 24.6732 108.489 23.7617 107.888 22.5859C107.295 21.4102 106.999 20.0247 106.999 18.4297C106.999 16.8529 107.295 15.472 107.888 14.2871C108.48 13.0931 109.314 12.1634 110.39 11.498C111.465 10.8327 112.732 10.5 114.191 10.5C115.129 10.5 116.018 10.6504 116.857 10.9512C117.704 11.252 118.452 11.7168 119.099 12.3457C119.755 12.9746 120.27 13.7767 120.644 14.752C121.017 15.7181 121.204 16.8711 121.204 18.2109V19.332H108.681V16.9121H119.413L117.732 17.623C117.732 16.7572 117.599 16.0052 117.335 15.3672C117.071 14.7201 116.679 14.2142 116.159 13.8496C115.64 13.485 114.993 13.3027 114.218 13.3027C113.443 13.3027 112.782 13.485 112.235 13.8496C111.689 14.2142 111.274 14.7064 110.991 15.3262C110.709 15.9368 110.568 16.6204 110.568 17.377V19.0586C110.568 19.9883 110.727 20.7858 111.046 21.4512C111.374 22.1074 111.83 22.6087 112.413 22.9551C113.006 23.3014 113.694 23.4746 114.478 23.4746C114.988 23.4746 115.453 23.4017 115.872 23.2559C116.301 23.11 116.665 22.8913 116.966 22.5996C117.276 22.2988 117.513 21.9297 117.677 21.4922L121.04 21.8887C120.821 22.7728 120.416 23.5475 119.823 24.2129C119.24 24.8691 118.488 25.3796 117.568 25.7441C116.656 26.0996 115.608 26.2773 114.423 26.2773ZM122.879 25.9766V10.6914H126.366V13.2617H126.53C126.803 12.3685 127.282 11.6849 127.965 11.2109C128.649 10.7279 129.428 10.4863 130.303 10.4863C130.495 10.4863 130.713 10.4954 130.959 10.5137C131.215 10.5319 131.424 10.5547 131.588 10.582V13.8906C131.433 13.8359 131.192 13.7904 130.864 13.7539C130.536 13.7174 130.221 13.6992 129.92 13.6992C129.255 13.6992 128.662 13.8405 128.143 14.123C127.623 14.4056 127.213 14.793 126.912 15.2852C126.621 15.7773 126.475 16.3516 126.475 17.0078V25.9766H122.879ZM141.097 10.6914V13.4805H132.334V10.6914H141.097ZM134.48 7.05469H138.076V21.3828C138.076 21.9844 138.208 22.431 138.472 22.7227C138.737 23.0052 139.156 23.1465 139.73 23.1465C139.885 23.1465 140.058 23.1328 140.25 23.1055C140.441 23.0781 140.614 23.0462 140.769 23.0098L141.384 25.8262C141.002 25.9447 140.614 26.0312 140.222 26.0859C139.83 26.1497 139.438 26.1816 139.047 26.1816C137.625 26.1816 136.508 25.8079 135.697 25.0605C134.886 24.304 134.48 23.2741 134.48 21.9707V7.05469Z" fill="white"/>
<path d="M10.9806 15.743C14.6061 16.7563 18.2239 17.802 21.8645 18.7754C24.741 19.5453 27.6592 20.169 30.5204 20.9959C31.1003 21.1632 31.8949 21.9465 31.9178 22.4635C32.0509 25.5054 31.9824 28.5472 31.9824 31.9369C28.5129 31.9369 25.1973 31.9996 21.8874 31.8742C21.359 31.8552 20.7467 31.0814 20.3666 30.5224C17.2695 25.9598 14.2182 21.3666 10.724 16.8591V31.8247H0.0339366C0.0339366 28.5566 -0.0364051 25.376 0.098575 22.2032C0.12329 21.6327 0.906555 20.9179 1.51111 20.5948C4.38372 19.0605 7.31716 17.6367 10.57 16.0036C7.31716 14.3686 4.42745 12.8591 1.4826 11.4674C0.419865 10.9656 -0.0307016 10.3648 0.00161751 9.15567C0.0890694 6.19372 0.0320356 3.23555 0.0320356 0.136719H10.6479C10.6479 4.58346 10.6289 8.92755 10.665 13.2716C10.665 14.1101 10.8894 14.9465 11.0111 15.783L10.9806 15.743Z" fill="#D87643"/>
<path d="M11.0166 15.7825C14.3037 10.7521 17.5793 5.70656 20.9025 0.704684C21.0471 0.515671 21.2293 0.358872 21.4379 0.244301C21.6464 0.12973 21.8765 0.0599063 22.1135 0.0392887C25.2979 -0.0158441 28.4823 0.00316723 31.9652 0.00316723C31.9652 3.4252 31.9937 6.65712 31.9252 9.90235C31.9252 10.2503 31.4138 10.8054 31.0469 10.8947C24.3682 12.5506 17.6725 14.14 10.9824 15.7426L11.0166 15.7825Z" fill="#D87643"/>
</svg>
