<svg width="32" height="32" viewBox="0 0 32 32" fill="none" xmlns="http://www.w3.org/2000/svg">
<path d="M10.9806 15.7665C14.6061 16.7798 18.2239 17.8255 21.8645 18.7988C24.741 19.5688 27.6592 20.1924 30.5204 21.0194C31.1003 21.1867 31.8949 21.97 31.9178 22.487C32.0509 25.5289 31.9824 28.5707 31.9824 31.9604C28.5129 31.9604 25.1973 32.0231 21.8874 31.8977C21.359 31.8787 20.7467 31.1048 20.3666 30.5459C17.2695 25.9832 14.2182 21.3901 10.724 16.8826V31.8482H0.0339366C0.0339366 28.5801 -0.0364051 25.3995 0.098575 22.2266C0.12329 21.6562 0.906555 20.9414 1.51111 20.6183C4.38372 19.084 7.31716 17.6601 10.57 16.027C7.31716 14.3921 4.42745 12.8825 1.4826 11.4909C0.419865 10.989 -0.0307016 10.3883 0.00161751 9.17914C0.0890694 6.21718 0.0320356 3.25902 0.0320356 0.160187H10.6479C10.6479 4.60693 10.6289 8.95101 10.665 13.2951C10.665 14.1335 10.8894 14.9699 11.0111 15.8064L10.9806 15.7665Z" fill="#85A6A6"/>
<path d="M11.0147 15.8064C14.3017 10.7761 17.5774 5.73048 20.9005 0.72861C21.0451 0.539597 21.2273 0.382798 21.4359 0.268227C21.6444 0.153656 21.8746 0.083832 22.1115 0.0632145C25.296 0.0080817 28.4803 0.027093 31.9632 0.027093C31.9632 3.44912 31.9917 6.68104 31.9233 9.92627C31.9233 10.2742 31.4118 10.8293 31.045 10.9187C24.3663 12.5745 17.6705 14.1639 10.9805 15.7665L11.0147 15.8064Z" fill="#85A6A6"/>
</svg>
