<svg width="105" height="105" viewBox="0 0 105 105" fill="none" xmlns="http://www.w3.org/2000/svg">
<circle cx="52.5" cy="52.5" r="52.5" fill="white" fill-opacity="0.08"/>
<circle cx="52.5" cy="52.5" r="52" stroke="white" stroke-opacity="0.12"/>
<g clip-path="url(#clip0_91_2352)">
<mask id="mask0_91_2352" style="mask-type:alpha" maskUnits="userSpaceOnUse" x="33" y="33" width="39" height="39">
<path d="M71.4016 33.6H33.6016V71.4H71.4016V33.6Z" fill="#D9D9D9"/>
</mask>
<g mask="url(#mask0_91_2352)">
<path d="M52.4997 71.0152C62.7254 71.0152 71.015 62.7256 71.015 52.4999C71.015 42.2742 62.7254 33.9846 52.4997 33.9846C42.274 33.9846 33.9844 42.2742 33.9844 52.4999C33.9844 62.7256 42.274 71.0152 52.4997 71.0152Z" stroke="white" stroke-width="0.977041"/>
<path d="M52.4992 64.1359C58.9256 64.1359 64.1352 58.9263 64.1352 52.5C64.1352 46.0736 58.9256 40.864 52.4992 40.864C46.0729 40.864 40.8633 46.0736 40.8633 52.5C40.8633 58.9263 46.0729 64.1359 52.4992 64.1359Z" stroke="white" stroke-width="0.977041"/>
</g>
</g>
<defs>
<clipPath id="clip0_91_2352">
<rect width="37.8" height="37.8" fill="white" transform="translate(33.6016 33.6)"/>
</clipPath>
</defs>
</svg>
